<?xml version="1.0" encoding="utf-8" standalone="yes"?>
<!DOCTYPE svg PUBLIC "-//W3C//DTD SVG 1.1//EN" "http://www.w3.org/Graphics/SVG/1.1/DTD/svg11.dtd">
<svg width="518" height="519" viewBox="0 0 518 519" style="fill:none;stroke:none;fill-rule:evenodd;clip-rule:evenodd;stroke-linecap:round;stroke-linejoin:round;stroke-miterlimit:1.5;" version="1.1" xmlns="http://www.w3.org/2000/svg" xmlns:xlink="http://www.w3.org/1999/xlink"><style class="text-font-style fontImports" data-font-family="Roboto">@import url('https://fonts.googleapis.com/css2?family=Roboto:wght@400;700&amp;display=block');</style><g id="items" style="isolation: isolate"><g id="blend" style="mix-blend-mode: normal"><g id="g-root-6.cu_sy_18iu6b21oj2ayy-fill" data-item-order="-41683" transform="translate(155.95623779296875, 210.9208984375)"></g><g id="g-root-5.cu_sy_1lvjmum1oj2bk3-fill" data-item-order="-41679" transform="translate(153.05825805664062, 297.47869873046875)"></g><g id="g-root-4.cu_sy_1qd8k8e1oj29s4-fill" data-item-order="-41675" transform="translate(212.578857421875, 375.04864501953125)"></g><g id="g-root-3.cu_sy_94ngxa1oj29s5-fill" data-item-order="-41671" transform="translate(308.75726318359375, 299.47174072265625)"></g><g id="g-root-2.cu_sy_dbqbu61oj3pqe-fill" data-item-order="-41667" transform="translate(308.49853515625, 209.79986572265625)"></g><g id="g-root-1.cu_sy_m8ma9a1oj3qbz-fill" data-item-order="-41663" transform="translate(213.6922607421875, 191.38629150390625)"></g><g id="g-root-tx_ciclodea_1hdupgu1oj543y-fill" data-item-order="0" transform="translate(105, 39)"><g id="tx_ciclodea_1hdupgu1oj543y-fill" stroke="none" fill="#f4f4f4"><g><text style="font: bold 20px Roboto, sans-serif; white-space: pre;" font-weight="bold" font-size="20px" font-family="Roboto, sans-serif"><tspan x="16.5" y="34" dominant-baseline="ideographic">Ciclo de Análisis Personalizable</tspan></text></g></g></g><g id="g-root-tx_definirn_4hyqum1oj52x9-fill" data-item-order="0" transform="translate(195, 123)"><g id="tx_definirn_4hyqum1oj52x9-fill" stroke="none" fill="#f4f4f4"><g><text style="font: 20px Roboto, sans-serif; white-space: pre;" font-size="20px" font-family="Roboto, sans-serif"><tspan x="38.77" y="34" dominant-baseline="ideographic">Definir </tspan><tspan x="12.25" y="58" dominant-baseline="ideographic">Necesidades</tspan></text></g></g></g><g id="g-root-tx_integrar_zlbqsu1oj3qx4-fill" data-item-order="0" transform="translate(51, 207)"><g id="tx_integrar_zlbqsu1oj3qx4-fill" stroke="none" fill="#f4f4f4"><g><text style="font: 20px Roboto, sans-serif; white-space: pre;" font-size="20px" font-family="Roboto, sans-serif"><tspan x="30.13" y="34" dominant-baseline="ideographic">Integrar </tspan><tspan x="21.05" y="58" dominant-baseline="ideographic">Sistemas</tspan></text></g></g></g><g id="g-root-tx_personal_8vwtpq1oj53wk-fill" data-item-order="0" transform="translate(363, 207)"><g id="tx_personal_8vwtpq1oj53wk-fill" stroke="none" fill="#f4f4f4"><g><text style="font: 20px Roboto, sans-serif; white-space: pre;" font-size="20px" font-family="Roboto, sans-serif"><tspan x="12" y="34" dominant-baseline="ideographic">Personalizar </tspan><tspan x="12" y="58" dominant-baseline="ideographic">Parámetros</tspan></text></g></g></g><g id="g-root-tx_mejorarp_zn76261oj3pxd-fill" data-item-order="0" transform="translate(15, 327.00006103515625)"><g id="tx_mejorarp_zn76261oj3pxd-fill" stroke="none" fill="#f4f4f4"><g><text style="font: 20px Roboto, sans-serif; white-space: pre;" font-size="20px" font-family="Roboto, sans-serif"><tspan x="66.72" y="34" dominant-baseline="ideographic">Mejorar </tspan><tspan x="17.22" y="58" dominant-baseline="ideographic">Productividad</tspan></text></g></g></g><g id="g-root-tx_monitore_hzo0321oj3pj7-fill" data-item-order="0" transform="translate(363, 327.00006103515625)"><g id="tx_monitore_hzo0321oj3pj7-fill" stroke="none" fill="#f4f4f4"><g><text style="font: 20px Roboto, sans-serif; white-space: pre;" font-size="20px" font-family="Roboto, sans-serif"><tspan x="12" y="34" dominant-baseline="ideographic">Monitorear </tspan><tspan x="12" y="58" dominant-baseline="ideographic">Datos</tspan></text></g></g></g><g id="g-root-tx_evaluarr_qtfl2m1oj3pqa-fill" data-item-order="0" transform="translate(213, 411.00006103515625)"><g id="tx_evaluarr_qtfl2m1oj3pqa-fill" stroke="none" fill="#f4f4f4"><g><text style="font: 20px Roboto, sans-serif; white-space: pre;" font-size="20px" font-family="Roboto, sans-serif"><tspan x="16.98" y="34" dominant-baseline="ideographic">Evaluar </tspan><tspan x="16.46" y="58" dominant-baseline="ideographic">Riesgos</tspan></text></g></g></g><g id="g-root-6.cu_sy_18iu6b21oj2ayy-stroke" data-item-order="-41683" transform="translate(155.95623779296875, 210.9208984375)"><g id="6.cu_sy_18iu6b21oj2ayy-stroke" fill="none" stroke-linecap="round" stroke-linejoin="round" stroke-miterlimit="4" stroke="#cb68f9" stroke-width="2"><g><path d="M 16.940979 81.509675L 10 80.60254L 10.453583 77.131989C 13.466034 54.083313 24.499481 32.278382 42.381439 16.140442L 39.425689 12.45633L 55.403778 10L 49.541961 25.065628L 46.769836 21.610367C 30.335632 36.574707 20.180115 56.726624 17.394531 78.039246L 16.940979 81.509675Z"></path></g></g></g><g id="g-root-5.cu_sy_1lvjmum1oj2bk3-stroke" data-item-order="-41679" transform="translate(153.05825805664062, 297.47869873046875)"><g id="5.cu_sy_1lvjmum1oj2bk3-stroke" fill="none" stroke-linecap="round" stroke-linejoin="round" stroke-miterlimit="4" stroke="#ffe711" stroke-width="2"><g><path d="M 58.559601 79.064606L 54.303497 84.622101L 51.524689 82.493988C 33.07019 68.36081 19.703308 47.903107 14.668396 24.347901L 10 25.065613L 15.861786 10L 25.978088 22.609284L 21.599701 23.28241C 26.342102 44.997009 38.7164 63.86789 55.780884 76.936585L 58.559601 79.064606Z"></path></g></g></g><g id="g-root-4.cu_sy_1qd8k8e1oj29s4-stroke" data-item-order="-41675" transform="translate(212.578857421875, 375.04864501953125)"><g id="4.cu_sy_1qd8k8e1oj29s4-stroke" fill="none" stroke-linecap="round" stroke-linejoin="round" stroke-miterlimit="4" stroke="#f79438" stroke-width="2"><g><path d="M 91.160614 10.011261L 93.845489 16.475891L 90.613098 17.818359C 69.146149 26.733826 44.745788 28.081024 21.828949 20.663788L 20.116302 25.065582L 10 12.456329L 25.978119 10L 24.371857 14.128357C 45.548462 20.878632 68.078277 19.597626 87.928345 11.353668L 91.160614 10.011261Z"></path></g></g></g><g id="g-root-3.cu_sy_94ngxa1oj29s5-stroke" data-item-order="-41671" transform="translate(308.75726318359375, 299.47174072265625)"><g id="3.cu_sy_94ngxa1oj29s5-stroke" fill="none" stroke-linecap="round" stroke-linejoin="round" stroke-miterlimit="4" stroke="#1ac3fb" stroke-width="2"><g><path d="M 48.462799 10L 55.403778 10.907135L 54.950195 14.377686C 51.937744 37.426361 40.904297 59.231293 23.022339 75.369232L 25.978089 79.053345L 10 81.509674L 15.861817 66.444031L 18.633942 69.899292C 35.068146 54.934967 45.223664 34.783051 48.009247 13.470398L 48.462799 10Z"></path></g></g></g><g id="g-root-2.cu_sy_dbqbu61oj3pqe-stroke" data-item-order="-41667" transform="translate(308.49853515625, 209.79986572265625)"><g id="2.cu_sy_dbqbu61oj3pqe-stroke" fill="none" stroke-linecap="round" stroke-linejoin="round" stroke-miterlimit="4" stroke="#a6da37" stroke-width="2"><g><path d="M 10 15.557495L 14.256104 10L 17.034882 12.128098C 35.489411 26.261292 48.856293 46.718994 53.891205 70.274201L 58.559601 69.556504L 52.697815 84.622101L 42.581513 72.012787L 46.9599 71.339691C 42.217499 49.625092 29.843201 30.754196 12.778687 17.685501L 10 15.557495Z"></path></g></g></g><g id="g-root-1.cu_sy_m8ma9a1oj3qbz-stroke" data-item-order="-41663" transform="translate(213.6922607421875, 191.38629150390625)"><g id="1.cu_sy_m8ma9a1oj3qbz-stroke" fill="none" stroke-linecap="round" stroke-linejoin="round" stroke-miterlimit="4" stroke="#43dd93" stroke-width="2"><g><path d="M 12.684876 25.455185L 10 18.99054L 13.232392 17.648071C 34.699341 8.732605 59.099701 7.385391 82.016541 14.802643L 83.729187 10.400833L 93.84549 23.010117L 77.867371 25.466431L 79.473633 21.338074C 58.297058 14.587814 35.767212 15.86882 15.917145 24.112762L 12.684876 25.455185Z"></path></g></g></g><g id="g-root-tx_ciclodea_1hdupgu1oj543y-stroke" data-item-order="0" transform="translate(105, 39)"></g><g id="g-root-tx_definirn_4hyqum1oj52x9-stroke" data-item-order="0" transform="translate(195, 123)"></g><g id="g-root-tx_integrar_zlbqsu1oj3qx4-stroke" data-item-order="0" transform="translate(51, 207)"></g><g id="g-root-tx_personal_8vwtpq1oj53wk-stroke" data-item-order="0" transform="translate(363, 207)"></g><g id="g-root-tx_mejorarp_zn76261oj3pxd-stroke" data-item-order="0" transform="translate(15, 327.00006103515625)"></g><g id="g-root-tx_monitore_hzo0321oj3pj7-stroke" data-item-order="0" transform="translate(363, 327.00006103515625)"></g><g id="g-root-tx_evaluarr_qtfl2m1oj3pqa-stroke" data-item-order="0" transform="translate(213, 411.00006103515625)"></g></g></g></svg>