<?xml version="1.0" encoding="utf-8" standalone="yes"?>
<!DOCTYPE svg PUBLIC "-//W3C//DTD SVG 1.1//EN" "http://www.w3.org/Graphics/SVG/1.1/DTD/svg11.dtd">
<svg width="722" height="399" viewBox="0 0 722 399" style="fill:none;stroke:none;fill-rule:evenodd;clip-rule:evenodd;stroke-linecap:round;stroke-linejoin:round;stroke-miterlimit:1.5;" version="1.1" xmlns="http://www.w3.org/2000/svg" xmlns:xlink="http://www.w3.org/1999/xlink"><style class="text-font-style fontImports" data-font-family="Roboto">@import url('https://fonts.googleapis.com/css2?family=Roboto:wght@400;700&amp;display=block');</style><g id="items" style="isolation: isolate"><g id="blend" style="mix-blend-mode: normal"><g id="g-root-4.Vector_sy_qtecxp1mvac5k-fill" data-item-order="-87052" transform="translate(157.8154296875, 99.17510986328125)"><g id="4.Vector_sy_qtecxp1mvac5k-fill" stroke="none" fill="#5c4938"><g><path d="M 105.86257 65.676905L 111.51057 83.824905L 92.96957 88.006905L 96.55757 81.791905L 73.93457 68.730905C 62.97957 82.226905 43.53957 86.150905 28.00657 77.182905C 10.78757 67.241905 4.88757 45.224905 14.82957 28.005905C 24.77057 10.787905 46.78757 4.887905 64.00657 14.828905C 79.51857 23.784905 85.84357 42.542905 79.67557 58.762905L 102.30957 71.829905L 105.86257 65.676905Z"></path></g></g></g><g id="g-root-3.Vector_sy_18lxblp1mvabyh-fill" data-item-order="-87048" transform="translate(157.50189208984375, 260.96697998046875)"><g id="3.Vector_sy_18lxblp1mvabyh-fill" stroke="none" fill="#344e57"><g><path d="M 105.916123 32.33099L 111.564123 14.18299L 93.024123 9.99999L 96.612123 16.21499L 73.934123 29.30799C 62.979123 15.81199 43.540123 11.88799 28.006123 20.85599C 10.787123 30.79699 4.888123 52.81399 14.829123 70.03299C 24.770123 87.25199 46.787123 93.15099 64.006123 83.20999C 79.518123 74.25399 85.843123 55.49599 79.676123 39.27699L 102.364123 26.17799L 105.916123 32.33099Z"></path></g></g></g><g id="g-root-2.Vector_sy_1lyms591mvacjm-fill" data-item-order="-87044" transform="translate(418.9339599609375, 260.96697998046875)"><g id="2.Vector_sy_1lyms591mvacjm-fill" stroke="none" fill="#4b533a"><g><path d="M 28.54001 9.99999L 10.00001 14.18299L 15.64801 32.33099L 19.23601 26.11599L 41.91401 39.20899C 35.70301 55.44399 42.02401 74.24099 57.55801 83.20999C 74.77701 93.15099 96.79401 87.25199 106.73501 70.03299C 116.67601 52.81399 110.77701 30.79699 93.55801 20.85599C 78.04601 11.89999 58.63901 15.80099 47.67601 29.25199L 24.98801 16.15299L 28.54001 9.99999Z"></path></g></g></g><g id="g-root-1.Vector_sy_8vvlkt1mvbqbv-fill" data-item-order="-87040" transform="translate(418.67401123046875, 99.17510986328125)"><g id="1.Vector_sy_8vvlkt1mvbqbv-fill" stroke="none" fill="#3b5649"><g><path d="M 28.540989 88.007905L 9.999989 83.824905L 15.647989 65.676905L 19.236989 71.891905L 41.859989 58.829905C 35.648989 42.594905 41.970989 23.797905 57.503989 14.828905C 74.722989 4.887905 96.739989 10.787905 106.680989 28.005905C 116.622989 45.224905 110.722989 67.241905 93.503989 77.182905C 77.991989 86.138905 58.584989 82.237905 47.621989 68.786905L 24.987989 81.853905L 28.540989 88.007905Z"></path></g></g></g><g id="g-root-0.cr-big_cr_m8l24d1mvbqx0-fill" data-item-order="-87036" transform="translate(267, 146.99603271484375)"><g id="0.cr-big_cr_m8l24d1mvbqx0-fill" stroke="none" fill="#545454"><g><path d="M 10 82C 10.000001 121.764503 42.235499 154.000001 82.000001 154.000001C 121.764503 154.000001 154.000001 121.764503 154.000001 82.000001C 154.000001 42.235499 121.764503 10.000001 82.000001 10.000001C 42.235499 10.000001 10.000001 42.235499 10.000001 82.000001"></path></g></g></g><g id="g-root-tx_caracter_142cyyl1mvd69t-fill" data-item-order="0" transform="translate(117, 39)"><g id="tx_caracter_142cyyl1mvd69t-fill" stroke="none" fill="#f4f4f4"><g><text style="font: 20px Roboto, sans-serif; white-space: pre;" font-size="20px" font-family="Roboto, sans-serif"><tspan x="13.32" y="34" dominant-baseline="ideographic">Características de la Gestión de Cuentas Seguras</tspan></text></g></g></g><g id="g-root-tx_monitore_qpnif11mvbsat-fill" data-item-order="0" transform="translate(27, 111)"><g id="tx_monitore_qpnif11mvbsat-fill" stroke="none" fill="#f4f4f4"><g><text style="font: 20px Roboto, sans-serif; white-space: pre;" font-size="20px" font-family="Roboto, sans-serif"><tspan x="17.47" y="34" dominant-baseline="ideographic">Monitoreo y </tspan><tspan x="63.13" y="58" dominant-baseline="ideographic">Control</tspan></text></g></g></g><g id="g-root-buil_v8mm7x1mvelfk-fill" data-item-order="0" transform="translate(169, 111)"></g><g id="g-root-door_4l2rr11nfdq10-fill" data-item-order="0" transform="translate(461, 111)"></g><g id="g-root-tx_accesosi_4hb1ml1mvd6o0-fill" data-item-order="0" transform="translate(531, 111)"><g id="tx_accesosi_4hb1ml1mvd6o0-fill" stroke="none" fill="#f4f4f4"><g><text style="font: 20px Roboto, sans-serif; white-space: pre;" font-size="20px" font-family="Roboto, sans-serif"><tspan x="12" y="34" dominant-baseline="ideographic">Acceso </tspan><tspan x="12" y="58" dominant-baseline="ideographic">Simplificado</tspan></text></g></g></g><g id="g-root-lock_1hgxurh1mvd53e-fill" data-item-order="0" transform="translate(303, 182.99603271484375)"></g><g id="g-root-tx_segurida_1hgxurh1mvbrpi-fill" data-item-order="0" transform="translate(15, 279)"><g id="tx_segurida_1hgxurh1mvbrpi-fill" stroke="none" fill="#f4f4f4"><g><text style="font: 20px Roboto, sans-serif; white-space: pre;" font-size="20px" font-family="Roboto, sans-serif"><tspan x="18.59" y="34" dominant-baseline="ideographic">Seguridad en </tspan><tspan x="43.86" y="58" dominant-baseline="ideographic">Cada Paso</tspan></text></g></g></g><g id="g-root-chec_1qclat91n51iq1-fill" data-item-order="0" transform="translate(169, 279)"></g><g id="g-root-lock_8wifb11nezpcf-fill" data-item-order="0" transform="translate(461, 279)"></g><g id="g-root-tx_personal_vbprel1mvbt3b-fill" data-item-order="0" transform="translate(531, 279)"><g id="tx_personal_vbprel1mvbt3b-fill" stroke="none" fill="#f4f4f4"><g><text style="font: 20px Roboto, sans-serif; white-space: pre;" font-size="20px" font-family="Roboto, sans-serif"><tspan x="12" y="34" dominant-baseline="ideographic">Personalización </tspan><tspan x="12" y="58" dominant-baseline="ideographic">de Permisos</tspan></text></g></g></g><g id="g-root-4.Vector_sy_qtecxp1mvac5k-stroke" data-item-order="-87052" transform="translate(157.8154296875, 99.17510986328125)"><g id="4.Vector_sy_qtecxp1mvac5k-stroke" fill="none" stroke-linecap="round" stroke-linejoin="round" stroke-miterlimit="4" stroke="#f79438" stroke-width="2"><g><path d="M 105.86257 65.676905L 111.51057 83.824905L 92.96957 88.006905L 96.55757 81.791905L 73.93457 68.730905C 62.97957 82.226905 43.53957 86.150905 28.00657 77.182905C 10.78757 67.241905 4.88757 45.224905 14.82957 28.005905C 24.77057 10.787905 46.78757 4.887905 64.00657 14.828905C 79.51857 23.784905 85.84357 42.542905 79.67557 58.762905L 102.30957 71.829905L 105.86257 65.676905Z"></path></g></g></g><g id="g-root-3.Vector_sy_18lxblp1mvabyh-stroke" data-item-order="-87048" transform="translate(157.50189208984375, 260.96697998046875)"><g id="3.Vector_sy_18lxblp1mvabyh-stroke" fill="none" stroke-linecap="round" stroke-linejoin="round" stroke-miterlimit="4" stroke="#1ac3fb" stroke-width="2"><g><path d="M 105.916123 32.33099L 111.564123 14.18299L 93.024123 9.99999L 96.612123 16.21499L 73.934123 29.30799C 62.979123 15.81199 43.540123 11.88799 28.006123 20.85599C 10.787123 30.79699 4.888123 52.81399 14.829123 70.03299C 24.770123 87.25199 46.787123 93.15099 64.006123 83.20999C 79.518123 74.25399 85.843123 55.49599 79.676123 39.27699L 102.364123 26.17799L 105.916123 32.33099Z"></path></g></g></g><g id="g-root-2.Vector_sy_1lyms591mvacjm-stroke" data-item-order="-87044" transform="translate(418.9339599609375, 260.96697998046875)"><g id="2.Vector_sy_1lyms591mvacjm-stroke" fill="none" stroke-linecap="round" stroke-linejoin="round" stroke-miterlimit="4" stroke="#a6da37" stroke-width="2"><g><path d="M 28.54001 9.99999L 10.00001 14.18299L 15.64801 32.33099L 19.23601 26.11599L 41.91401 39.20899C 35.70301 55.44399 42.02401 74.24099 57.55801 83.20999C 74.77701 93.15099 96.79401 87.25199 106.73501 70.03299C 116.67601 52.81399 110.77701 30.79699 93.55801 20.85599C 78.04601 11.89999 58.63901 15.80099 47.67601 29.25199L 24.98801 16.15299L 28.54001 9.99999Z"></path></g></g></g><g id="g-root-1.Vector_sy_8vvlkt1mvbqbv-stroke" data-item-order="-87040" transform="translate(418.67401123046875, 99.17510986328125)"><g id="1.Vector_sy_8vvlkt1mvbqbv-stroke" fill="none" stroke-linecap="round" stroke-linejoin="round" stroke-miterlimit="4" stroke="#43dd93" stroke-width="2"><g><path d="M 28.540989 88.007905L 9.999989 83.824905L 15.647989 65.676905L 19.236989 71.891905L 41.859989 58.829905C 35.648989 42.594905 41.970989 23.797905 57.503989 14.828905C 74.722989 4.887905 96.739989 10.787905 106.680989 28.005905C 116.622989 45.224905 110.722989 67.241905 93.503989 77.182905C 77.991989 86.138905 58.584989 82.237905 47.621989 68.786905L 24.987989 81.853905L 28.540989 88.007905Z"></path></g></g></g><g id="g-root-0.cr-big_cr_m8l24d1mvbqx0-stroke" data-item-order="-87036" transform="translate(267, 146.99603271484375)"><g id="0.cr-big_cr_m8l24d1mvbqx0-stroke" fill="none" stroke-linecap="round" stroke-linejoin="round" stroke-miterlimit="4" stroke="#b7b7b7" stroke-width="2"><g><path d="M 10 82C 10.000001 121.764503 42.235499 154.000001 82.000001 154.000001C 121.764503 154.000001 154.000001 121.764503 154.000001 82.000001C 154.000001 42.235499 121.764503 10.000001 82.000001 10.000001C 42.235499 10.000001 10.000001 42.235499 10.000001 82.000001"></path></g></g></g><g id="g-root-tx_caracter_142cyyl1mvd69t-stroke" data-item-order="0" transform="translate(117, 39)"></g><g id="g-root-tx_monitore_qpnif11mvbsat-stroke" data-item-order="0" transform="translate(27, 111)"></g><g id="g-root-buil_v8mm7x1mvelfk-stroke" data-item-order="0" transform="translate(169, 111)"><g id="buil_v8mm7x1mvelfk-stroke" fill="none" stroke-linecap="round" stroke-linejoin="round" stroke-miterlimit="4" stroke="#f79438" stroke-width="2"><g><path d="M 10 10M 45.125999 45.104L 57.037998 57.014M 10.962 30.986C 10.962 42.031696 19.916306 50.986 30.962 50.986C 42.007694 50.986 50.962002 42.031696 50.962002 30.986C 50.962002 19.940306 42.007694 10.986 30.962 10.986C 19.916306 10.986 10.962 19.940306 10.962 30.986ZM 30.962 40.986L 21.962 40.986C 21.409716 40.986 20.962 40.538284 20.962 39.986L 20.962 22.6C 20.964392 22.256493 21.142933 21.938255 21.434849 21.757177C 21.726765 21.576099 22.09119 21.557531 22.4 21.708L 30.954 25.986ZM 30.962 28.986L 39.961998 28.986C 40.514282 28.986 40.961998 29.433716 40.961998 29.986L 40.961998 39.986C 40.961998 40.538284 40.514282 40.986 39.961998 40.986L 30.962 40.986M 20.962 28.986L 25.962 28.986M 20.962 32.986L 25.962 32.986M 30.962 25.986L 30.962 20.986M 38.961998 28.986L 38.961998 23.986M 30.962 32.986L 35.961998 32.986M 30.962 36.986L 35.961998 36.986"></path></g></g></g><g id="g-root-door_4l2rr11nfdq10-stroke" data-item-order="0" transform="translate(461, 111)"><g id="door_4l2rr11nfdq10-stroke" fill="none" stroke-linecap="round" stroke-linejoin="round" stroke-miterlimit="4" stroke="#43dd93" stroke-width="2"><g><path d="M 39.52 28.084L 52.52 28.084C 52.52 28.084 55.52 28.084 55.52 31.084L 55.52 53.084C 55.52 53.084 55.52 56.084 52.52 56.084L 39.52 56.084C 39.52 56.084 36.52 56.084 36.52 53.084L 36.52 31.084C 36.52 31.084 36.52 28.084 39.52 28.084M 41.59 35.73C 41.59 36.144215 41.925789 36.480003 42.34 36.480003C 42.754215 36.480003 43.09 36.144215 43.09 35.730003C 43.09 35.315788 42.754215 34.980003 42.34 34.980003C 41.925789 34.980003 41.59 35.315788 41.59 35.730003M 48.59 35.73C 48.59 36.144215 48.925789 36.480003 49.34 36.480003C 49.754215 36.480003 50.09 36.144215 50.09 35.730003C 50.09 35.315788 49.754215 34.980003 49.34 34.980003C 48.925789 34.980003 48.59 35.315788 48.59 35.730003M 41.59 42.23C 41.59 42.644215 41.925789 42.98 42.34 42.98C 42.754215 42.98 43.09 42.644215 43.09 42.23C 43.09 41.815788 42.754215 41.480003 42.34 41.480003C 41.925789 41.480003 41.59 41.815788 41.59 42.23M 48.59 42.23C 48.59 42.644215 48.925789 42.98 49.34 42.98C 49.754215 42.98 50.09 42.644215 50.09 42.23C 50.09 41.815788 49.754215 41.480003 49.34 41.480003C 48.925789 41.480003 48.59 41.815788 48.59 42.23M 41.59 48.73C 41.59 49.144215 41.925789 49.48 42.34 49.48C 42.754215 49.48 43.09 49.144215 43.09 48.73C 43.09 48.315788 42.754215 47.98 42.34 47.98C 41.925789 47.98 41.59 48.315788 41.59 48.73M 48.59 48.73C 48.59 49.144215 48.925789 49.48 49.34 49.48C 49.754215 49.48 50.09 49.144215 50.09 48.73C 50.09 48.315788 49.754215 47.98 49.34 47.98C 48.925789 47.98 48.59 48.315788 48.59 48.73M 12.48 12.908L 26 20.416C 26.583403 20.635397 26.970337 21.192711 26.972 21.816L 26.972 54.584C 26.971991 55.079762 26.727346 55.543591 26.318197 55.823555C 25.90905 56.103519 25.388105 56.163555 24.925999 55.983997L 13.03 48.854C 12.69436 48.684875 12.481893 48.341839 12.48 47.966L 12.48 12.908C 12.48 12.355715 12.927715 11.908 13.48 11.908L 35.48 11.908C 37.136856 11.908 38.480003 13.251146 38.480003 14.908L 38.48 22.232M 22.501999 33.771999L 22.501999 37.771999M 26.98 48.358002L 31.496 48.358002"></path></g></g></g><g id="g-root-tx_accesosi_4hb1ml1mvd6o0-stroke" data-item-order="0" transform="translate(531, 111)"></g><g id="g-root-lock_1hgxurh1mvd53e-stroke" data-item-order="0" transform="translate(303, 182.99603271484375)"><g id="lock_1hgxurh1mvd53e-stroke" fill="none" stroke-linecap="round" stroke-linejoin="round" stroke-miterlimit="4" stroke="#b7b7b7" stroke-width="2"><g><path d="M 48.288998 63.243996L 18.066999 63.243996C 14.604861 63.240692 11.799998 60.43314 11.8 56.971001L 11.8 17.773001C 11.799998 14.31086 14.604861 11.503311 18.067001 11.5L 65.106995 11.5C 68.570313 11.501657 71.377007 14.309689 71.377007 17.773001L 71.376999 36.780998M 11.794 23.749001L 71.376999 23.749001M 11.794 49.774002L 48.288998 49.774002M 11.794 36.780998L 71.376999 36.780998M 36.130001 23.749001L 36.130001 63.243996M 53.577999 23.749001L 53.577999 44.808998M 54.508003 62.655998C 54.507999 60.192261 56.505257 58.195 58.969002 58.195L 75.745003 58.195C 78.206398 58.198311 80.199997 60.194599 80.199997 62.655998L 80.199997 76.039001C 80.199997 78.500404 78.206398 80.496689 75.744995 80.5L 58.969002 80.5C 56.505257 80.5 54.507999 78.502747 54.507999 76.039001ZM 67.356995 44.800003L 67.356995 44.800003C 62.52874 44.900047 58.694908 48.893677 58.792 53.722L 58.792 58.186001L 75.922005 58.186001L 75.922005 53.730999C 76.024139 48.899197 72.188843 44.900021 67.356995 44.799999ZM 67.356995 66.223C 66.03923 66.169121 64.820992 66.921577 64.279205 68.124023C 63.737427 69.326477 63.980865 70.737518 64.894241 71.688919C 65.807625 72.64032 67.207565 72.941071 68.431099 72.448746C 69.65464 71.956429 70.456131 70.769875 70.456001 69.451004C 70.49115 67.704025 69.103943 66.259079 67.356995 66.223L 67.356995 66.223"></path></g></g></g><g id="g-root-tx_segurida_1hgxurh1mvbrpi-stroke" data-item-order="0" transform="translate(15, 279)"></g><g id="g-root-chec_1qclat91n51iq1-stroke" data-item-order="0" transform="translate(169, 279)"><g id="chec_1qclat91n51iq1-stroke" fill="none" stroke-linecap="round" stroke-linejoin="round" stroke-miterlimit="4" stroke="#1ac3fb" stroke-width="2"><g><path d="M 45 24L 32.93 41.464001L 23.774 32.304001M 14 17.549999L 14 32.823997C 13.983479 42.968212 20.202927 52.079685 29.656 55.759998L 31.790001 56.588001C 33.211998 57.138035 34.788002 57.138035 36.209999 56.588001L 38.344002 55.759998C 47.797073 52.079685 54.016521 42.968212 54 32.823997L 54 17.549999C 54.009754 16.344622 53.313648 15.244927 52.220001 14.738001C 46.47974 12.216312 40.269463 10.942217 34 11C 27.730537 10.942217 21.52026 12.216312 15.78 14.738C 14.686356 15.244927 13.990248 16.344622 14 17.549999Z"></path></g></g></g><g id="g-root-lock_8wifb11nezpcf-stroke" data-item-order="0" transform="translate(461, 279)"><g id="lock_8wifb11nezpcf-stroke" fill="none" stroke-linecap="round" stroke-linejoin="round" stroke-miterlimit="4" stroke="#a6da37" stroke-width="2"><g><path d="M 37.428574 22L 54.57143 22C 54.57143 22 56.285713 22 56.285713 23.714287L 56.285713 35.714287C 56.285713 35.714287 56.285713 37.428574 54.57143 37.428574L 37.428574 37.428574C 37.428574 37.428574 35.714287 37.428574 35.714287 35.714287L 35.714287 23.714287C 35.714287 23.714287 35.714287 22 37.428574 22M 39.142857 22L 39.142857 18.571428C 39.142857 14.784333 42.212906 11.714286 46 11.714286C 49.787094 11.714286 52.857143 14.784333 52.857143 18.571428L 52.857143 22M 11.714286 39.142857L 22 39.142857C 26.73387 39.142857 30.571428 42.980419 30.571428 47.714287L 30.571428 47.714287M 20.285715 47.714287L 37.428574 47.714287C 41.215668 47.714287 44.285713 50.784332 44.285713 54.57143L 44.285713 54.57143C 44.285713 55.518204 43.518204 56.285713 42.57143 56.285713L 11.714286 56.285713"></path></g></g></g><g id="g-root-tx_personal_vbprel1mvbt3b-stroke" data-item-order="0" transform="translate(531, 279)"></g></g></g></svg>