<?xml version="1.0" encoding="utf-8" standalone="yes"?>
<!DOCTYPE svg PUBLIC "-//W3C//DTD SVG 1.1//EN" "http://www.w3.org/Graphics/SVG/1.1/DTD/svg11.dtd">
<svg width="710" height="542" viewBox="0 0 710 542" style="fill:none;stroke:none;fill-rule:evenodd;clip-rule:evenodd;stroke-linecap:round;stroke-linejoin:round;stroke-miterlimit:1.5;" version="1.1" xmlns="http://www.w3.org/2000/svg" xmlns:xlink="http://www.w3.org/1999/xlink"><style class="text-font-style fontImports" data-font-family="Roboto">@import url('https://fonts.googleapis.com/css2?family=Roboto:wght@400;700&amp;display=block');</style><g id="items" style="isolation: isolate"><g id="blend" style="mix-blend-mode: normal"><g id="g-root--1.cu_sy_hu0ez51rkv0n9-fill" data-item-order="-117455" transform="translate(196.2357177734375, 160.23583984375)"></g><g id="g-root-0.cu_sy_mb2v9t1rkv212-fill" data-item-order="-117452" transform="translate(290.9999694824219, 255)"><g id="0.cu_sy_mb2v9t1rkv212-fill" stroke="none" fill="#545454"><g><path d="M 102.358831 39.643831C 112.504031 64.135531 100.873131 92.214031 76.381431 102.358831C 51.889631 112.504031 23.811231 100.873131 13.666331 76.381431C 3.521531 51.889631 15.152031 23.811231 39.643831 13.666331C 64.135531 3.521531 92.214031 15.152031 102.358831 39.643831Z"></path></g></g></g><g id="g-root-8.cu_sy_qsrsnl1rkv093-fill" data-item-order="-117448" transform="translate(255.294921875, 134.868408203125)"><g id="8.cu_sy_qsrsnl1rkv093-fill" stroke="none" fill="#60436d"><g><path d="M 43.182 56.167307C 30.9393 61.238407 16.9038 55.424707 11.8327 43.182007C 6.7616 30.939307 12.5753 16.903807 24.818 11.832707C 37.0607 6.761607 51.0962 12.575307 56.1673 24.818007C 61.2384 37.060707 55.4247 51.096207 43.182 56.167307Z"></path></g></g></g><g id="g-root-7.cu_sy_145h9751rkv0u8-fill" data-item-order="-117444" transform="translate(170.86865234375, 219.295166015625)"><g id="7.cu_sy_145h9751rkv0u8-fill" stroke="none" fill="#69425a"><g><path d="M 56.167315 43.182015C 51.096215 55.424715 37.060715 61.238415 24.818015 56.167315C 12.575315 51.096215 6.761615 37.060715 11.832715 24.818015C 16.903815 12.575315 30.939315 6.761615 43.182015 11.832715C 55.424715 16.903815 61.238415 30.939315 56.167315 43.182015Z"></path></g></g></g><g id="g-root-6.cu_sy_1ly07v51rkv0n5-fill" data-item-order="-117440" transform="translate(170.86865234375, 338.6923828125)"><g id="6.cu_sy_1ly07v51rkv0n5-fill" stroke="none" fill="#68403f"><g><path d="M 56.1673 24.818C 61.2384 37.0607 55.4247 51.0962 43.182 56.1673C 30.9393 61.2384 16.9038 55.4247 11.8327 43.182C 6.7616 30.9393 12.5753 16.9038 24.818 11.8327C 37.0607 6.7616 51.0962 12.5753 56.1673 24.818Z"></path></g></g></g><g id="g-root-5.cu_sy_1qf2o5t1rkv20y-fill" data-item-order="-117436" transform="translate(255.294921875, 423.118896484375)"><g id="5.cu_sy_1qf2o5t1rkv20y-fill" stroke="none" fill="#5c4938"><g><path d="M 24.818 56.1673C 12.5753 51.0962 6.7616 37.0607 11.8327 24.818C 16.9038 12.5753 30.9393 6.7616 43.182 11.8327C 55.4247 16.9038 61.2384 30.9393 56.1673 43.182C 51.0962 55.4247 37.0607 61.2384 24.818 56.1673Z"></path></g></g></g><g id="g-root-4.cu_sy_8whzgx1rkwglf-fill" data-item-order="-117432" transform="translate(374.6923828125, 423.118896484375)"><g id="4.cu_sy_8whzgx1rkwglf-fill" stroke="none" fill="#54502f"><g><path d="M 43.182 56.1673C 30.9393 61.2384 16.9038 55.4247 11.8327 43.182C 6.7616 30.9393 12.5753 16.9038 24.818 11.8327C 37.0607 6.7616 51.0962 12.5753 56.1673 24.818C 61.2384 37.0607 55.4247 51.0962 43.182 56.1673Z"></path></g></g></g><g id="g-root-3.cu_sy_de6wup1rkwetg-fill" data-item-order="-117428" transform="translate(459.11865234375, 338.6923828125)"><g id="3.cu_sy_de6wup1rkwetg-fill" stroke="none" fill="#4b533a"><g><path d="M 56.1673 43.182C 51.0962 55.4247 37.0607 61.2384 24.818 56.1673C 12.5753 51.0962 6.7616 37.0607 11.8327 24.818C 16.9038 12.5753 30.9393 6.7616 43.182 11.8327C 55.4247 16.9038 61.2384 30.9393 56.1673 43.182Z"></path></g></g></g><g id="g-root-2.cu_sy_mb2v9t1rkwff1-fill" data-item-order="-117424" transform="translate(459.119140625, 219.295166015625)"><g id="2.cu_sy_mb2v9t1rkwff1-fill" stroke="none" fill="#3b5649"><g><path d="M 56.1673 24.818C 61.2384 37.0607 55.4247 51.0962 43.182 56.1673C 30.9393 61.2384 16.9038 55.4247 11.8327 43.182C 6.7616 30.9393 12.5753 16.9038 24.818 11.8327C 37.0607 6.7616 51.0962 12.5753 56.1673 24.818Z"></path></g></g></g><g id="g-root-1.cu_sy_znsbtd1rkwg06-fill" data-item-order="-117420" transform="translate(374.6923828125, 134.86865234375)"><g id="1.cu_sy_znsbtd1rkwg06-fill" stroke="none" fill="#344e57"><g><path d="M 24.818 56.167307C 12.5753 51.096207 6.7616 37.060707 11.8327 24.818007C 16.9038 12.575307 30.9393 6.761607 43.182 11.832707C 55.4247 16.903807 61.2384 30.939307 56.1673 43.182007C 51.0962 55.424707 37.0607 61.238407 24.818 56.167307Z"></path></g></g></g><g id="g-root-tx_integrac_1ursus11ruvzls-fill" data-item-order="0" transform="translate(519, 207)"><g id="tx_integrac_1ursus11ruvzls-fill" stroke="none" fill="#f4f4f4"><g><text style="font: 20px Roboto, sans-serif; white-space: pre;" font-size="20px" font-family="Roboto, sans-serif"><tspan x="12" y="34" dominant-baseline="ideographic">Integración con </tspan><tspan x="12" y="58" dominant-baseline="ideographic">Sistemas de </tspan><tspan x="12" y="82" dominant-baseline="ideographic">Acceso</tspan></text></g></g></g><g id="g-root-exch_mccp1t1rkz85o-fill" data-item-order="0" transform="translate(183, 231)"></g><g id="g-root-tx_actualiz_hz19ld1ruulfo-fill" data-item-order="0" transform="translate(435, 435)"><g id="tx_actualiz_hz19ld1ruulfo-fill" stroke="none" fill="#f4f4f4"><g><text style="font: 20px Roboto, sans-serif; white-space: pre;" font-size="20px" font-family="Roboto, sans-serif"><tspan x="12" y="34" dominant-baseline="ideographic">Actualización </tspan><tspan x="12" y="58" dominant-baseline="ideographic">en Tiempo Real</tspan></text></g></g></g><g id="g-root-door_1uo1e4x1ruysxw-fill" data-item-order="0" transform="translate(471, 231)"></g><g id="g-root-1_13ymqj51rurtad-fill" data-item-order="0" transform="translate(387, 147)"></g><g id="g-root-user_1q6zahd1runmyq-fill" data-item-order="0" transform="translate(315, 279)"></g><g id="g-root-tx_facilida_9mocx1rut8nc-fill" data-item-order="0" transform="translate(39, 339)"><g id="tx_facilida_9mocx1rut8nc-fill" stroke="none" fill="#f4f4f4"><g><text style="font: 20px Roboto, sans-serif; white-space: pre;" font-size="20px" font-family="Roboto, sans-serif"><tspan x="16.08" y="34" dominant-baseline="ideographic">Facilidad de </tspan><tspan x="93.3" y="58" dominant-baseline="ideographic">Uso</tspan></text></g></g></g><g id="g-root-refr_145h9751rkwe87-fill" data-item-order="0" transform="translate(267, 147)"></g><g id="g-root-tx_identifi_1um6l011ruxgqq-fill" data-item-order="0" transform="translate(435, 123)"><g id="tx_identifi_1um6l011ruxgqq-fill" stroke="none" fill="#f4f4f4"><g><text style="font: 20px Roboto, sans-serif; white-space: pre;" font-size="20px" font-family="Roboto, sans-serif"><tspan x="12" y="34" dominant-baseline="ideographic">Identificación y </tspan><tspan x="12" y="58" dominant-baseline="ideographic">Autenticación</tspan></text></g></g></g><g id="g-root-smar_dhyzm91rktn9e-fill" data-item-order="0" transform="translate(183, 351)"></g><g id="g-root-stac_1qbyk7l1rv07i8-fill" data-item-order="0" transform="translate(471, 351)"></g><g id="g-root-tx_personal_1q6zjyp1ruw07i-fill" data-item-order="0" transform="translate(519, 339)"><g id="tx_personal_1q6zjyp1ruw07i-fill" stroke="none" fill="#f4f4f4"><g><text style="font: 20px Roboto, sans-serif; white-space: pre;" font-size="20px" font-family="Roboto, sans-serif"><tspan x="12" y="34" dominant-baseline="ideographic">Personalización </tspan><tspan x="12" y="58" dominant-baseline="ideographic">de Información</tspan></text></g></g></g><g id="g-root-tx_segurida_142dxox1ruul1m-fill" data-item-order="0" transform="translate(135, 435)"><g id="tx_segurida_142dxox1ruul1m-fill" stroke="none" fill="#f4f4f4"><g><text style="font: 20px Roboto, sans-serif; white-space: pre;" font-size="20px" font-family="Roboto, sans-serif"><tspan x="21.2" y="34" dominant-baseline="ideographic">Seguridad </tspan><tspan x="32.31" y="58" dominant-baseline="ideographic">Mejorada</tspan></text></g></g></g><g id="g-root-key_1up9wi91rv7awy-fill" data-item-order="0" transform="translate(267, 435)"></g><g id="g-root-tx_sostenib_1umt2351rut8ng-fill" data-item-order="0" transform="translate(99, 123)"><g id="tx_sostenib_1umt2351rut8ng-fill" stroke="none" fill="#f4f4f4"><g><text style="font: 20px Roboto, sans-serif; white-space: pre;" font-size="20px" font-family="Roboto, sans-serif"><tspan x="21.11" y="34" dominant-baseline="ideographic">Sostenibilidad </tspan><tspan x="61.38" y="58" dominant-baseline="ideographic">Ambiental</tspan></text></g></g></g><g id="g-root-2_1czvhld1ruxe6l-fill" data-item-order="0" transform="translate(387, 435)"></g><g id="g-root-tx_desglose_mfh8sx1ruyu4t-fill" data-item-order="0" transform="translate(69, 39)"><g id="tx_desglose_mfh8sx1ruyu4t-fill" stroke="none" fill="#f4f4f4"><g><text style="font: 20px Roboto, sans-serif; white-space: pre;" font-size="20px" font-family="Roboto, sans-serif"><tspan x="17.25" y="34" dominant-baseline="ideographic">Desglose de las Funciones del Carnet Digital Personalizado</tspan></text></g></g></g><g id="g-root-tx_compatib_v8mcpd1rut7gm-fill" data-item-order="0" transform="translate(15, 195)"><g id="tx_compatib_v8mcpd1rut7gm-fill" stroke="none" fill="#f4f4f4"><g><text style="font: 20px Roboto, sans-serif; white-space: pre;" font-size="20px" font-family="Roboto, sans-serif"><tspan x="12.28" y="34" dominant-baseline="ideographic">Compatibilidad </tspan><tspan x="114.11" y="58" dominant-baseline="ideographic">con </tspan><tspan x="32.97" y="82" dominant-baseline="ideographic">Aplicaciones </tspan><tspan x="82.94" y="106" dominant-baseline="ideographic">Móviles</tspan></text></g></g></g><g id="g-root--1.cu_sy_hu0ez51rkv0n9-stroke" data-item-order="-117455" transform="translate(196.2357177734375, 160.23583984375)"><g id="-1.cu_sy_hu0ez51rkv0n9-stroke" fill="none" stroke-linecap="round" stroke-linejoin="round" stroke-miterlimit="4" stroke="#b7b7b7" stroke-width="2" stroke-dasharray="5.0, 7.0"><g><path d="M 10.005371 188.496651C 22.253971 159.118851 68.513571 122.718551 129.803471 97.331451C 191.091371 71.945251 249.538771 64.973251 278.974071 77.083751M 295.528371 117.020351C 283.287071 146.400151 237.023371 182.806551 175.725471 208.197051C 114.425471 233.588351 55.966971 240.558051 26.537371 228.437551M 77.087536 26.5455C 64.971736 55.9777 71.942536 114.431 97.331436 175.7253C 122.718336 237.0147 159.118236 283.2741 188.495936 295.5231M 228.441436 278.982C 240.556536 249.5494 233.585636 191.0968 208.197036 129.8033C 182.806336 68.5047 146.399336 22.2407 117.019336 10M 117.020136 295.527982C 146.399936 283.286782 182.806536 237.023082 208.197036 175.724982C 233.588236 114.425182 240.557936 55.966882 228.437636 26.537182M 77.083736 278.973482C 64.973236 249.538282 71.945236 191.090782 97.331436 129.802982C 122.718636 68.513082 159.118836 22.253482 188.496636 10.004882M 10 117.019451C 22.2408 146.399451 68.5047 182.806351 129.8032 208.197051C 191.0968 233.585651 249.5494 240.556551 278.982 228.441451M 295.5229 188.495751C 283.2738 159.118151 237.0145 122.718351 175.7253 97.331451C 114.4311 71.942651 55.978 64.971851 26.5456 77.087451"></path></g></g></g><g id="g-root-0.cu_sy_mb2v9t1rkv212-stroke" data-item-order="-117452" transform="translate(290.9999694824219, 255)"><g id="0.cu_sy_mb2v9t1rkv212-stroke" fill="none" stroke-linecap="round" stroke-linejoin="round" stroke-miterlimit="4" stroke="#b7b7b7" stroke-width="2"><g><path d="M 102.358831 39.643831C 112.503631 64.135531 100.873131 92.214031 76.381431 102.358831C 51.889631 112.503631 23.811231 100.873131 13.666331 76.381431C 3.521531 51.889631 15.152031 23.811231 39.643831 13.666331C 64.135531 3.521531 92.214031 15.152031 102.358831 39.643831Z"></path></g></g></g><g id="g-root-8.cu_sy_qsrsnl1rkv093-stroke" data-item-order="-117448" transform="translate(255.294921875, 134.868408203125)"><g id="8.cu_sy_qsrsnl1rkv093-stroke" fill="none" stroke-linecap="round" stroke-linejoin="round" stroke-miterlimit="4" stroke="#cb68f9" stroke-width="2"><g><path d="M 43.182 56.167307C 30.9393 61.238407 16.9038 55.424707 11.8327 43.182007C 6.7616 30.939307 12.5753 16.903807 24.818 11.832707C 37.0607 6.761607 51.0962 12.575307 56.1673 24.818007C 61.2384 37.060707 55.4247 51.096207 43.182 56.167307Z"></path></g></g></g><g id="g-root-7.cu_sy_145h9751rkv0u8-stroke" data-item-order="-117444" transform="translate(170.86865234375, 219.295166015625)"><g id="7.cu_sy_145h9751rkv0u8-stroke" fill="none" stroke-linecap="round" stroke-linejoin="round" stroke-miterlimit="4" stroke="#f366bb" stroke-width="2"><g><path d="M 56.167315 43.182015C 51.096215 55.424715 37.060715 61.238415 24.818015 56.167315C 12.575315 51.096215 6.761615 37.060715 11.832715 24.818015C 16.903815 12.575315 30.939315 6.761615 43.182015 11.832715C 55.424715 16.903815 61.238415 30.939315 56.167315 43.182015Z"></path></g></g></g><g id="g-root-6.cu_sy_1ly07v51rkv0n5-stroke" data-item-order="-117440" transform="translate(170.86865234375, 338.6923828125)"><g id="6.cu_sy_1ly07v51rkv0n5-stroke" fill="none" stroke-linecap="round" stroke-linejoin="round" stroke-miterlimit="4" stroke="#fb6762" stroke-width="2"><g><path d="M 56.1673 24.818C 61.2384 37.0607 55.4247 51.0962 43.182 56.1673C 30.9393 61.2384 16.9038 55.4247 11.8327 43.182C 6.7616 30.9393 12.5753 16.9038 24.818 11.8327C 37.0607 6.7616 51.0962 12.5753 56.1673 24.818Z"></path></g></g></g><g id="g-root-5.cu_sy_1qf2o5t1rkv20y-stroke" data-item-order="-117436" transform="translate(255.294921875, 423.118896484375)"><g id="5.cu_sy_1qf2o5t1rkv20y-stroke" fill="none" stroke-linecap="round" stroke-linejoin="round" stroke-miterlimit="4" stroke="#f79438" stroke-width="2"><g><path d="M 24.818 56.1673C 12.5753 51.0962 6.7616 37.0607 11.8327 24.818C 16.9038 12.5753 30.9393 6.7616 43.182 11.8327C 55.4247 16.9038 61.2384 30.9393 56.1673 43.182C 51.0962 55.4247 37.0607 61.2384 24.818 56.1673Z"></path></g></g></g><g id="g-root-4.cu_sy_8whzgx1rkwglf-stroke" data-item-order="-117432" transform="translate(374.6923828125, 423.118896484375)"><g id="4.cu_sy_8whzgx1rkwglf-stroke" fill="none" stroke-linecap="round" stroke-linejoin="round" stroke-miterlimit="4" stroke="#ffe711" stroke-width="2"><g><path d="M 43.182 56.1673C 30.9393 61.2384 16.9038 55.4247 11.8327 43.182C 6.7616 30.9393 12.5753 16.9038 24.818 11.8327C 37.0607 6.7616 51.0962 12.5753 56.1673 24.818C 61.2384 37.0607 55.4247 51.0962 43.182 56.1673Z"></path></g></g></g><g id="g-root-3.cu_sy_de6wup1rkwetg-stroke" data-item-order="-117428" transform="translate(459.11865234375, 338.6923828125)"><g id="3.cu_sy_de6wup1rkwetg-stroke" fill="none" stroke-linecap="round" stroke-linejoin="round" stroke-miterlimit="4" stroke="#a6da37" stroke-width="2"><g><path d="M 56.1673 43.182C 51.0962 55.4247 37.0607 61.2384 24.818 56.1673C 12.5753 51.0962 6.7616 37.0607 11.8327 24.818C 16.9038 12.5753 30.9393 6.7616 43.182 11.8327C 55.4247 16.9038 61.2384 30.9393 56.1673 43.182Z"></path></g></g></g><g id="g-root-2.cu_sy_mb2v9t1rkwff1-stroke" data-item-order="-117424" transform="translate(459.119140625, 219.295166015625)"><g id="2.cu_sy_mb2v9t1rkwff1-stroke" fill="none" stroke-linecap="round" stroke-linejoin="round" stroke-miterlimit="4" stroke="#43dd93" stroke-width="2"><g><path d="M 56.1673 24.818C 61.2384 37.0607 55.4247 51.0962 43.182 56.1673C 30.9393 61.2384 16.9038 55.4247 11.8327 43.182C 6.7616 30.9393 12.5753 16.9038 24.818 11.8327C 37.0607 6.7616 51.0962 12.5753 56.1673 24.818Z"></path></g></g></g><g id="g-root-1.cu_sy_znsbtd1rkwg06-stroke" data-item-order="-117420" transform="translate(374.6923828125, 134.86865234375)"><g id="1.cu_sy_znsbtd1rkwg06-stroke" fill="none" stroke-linecap="round" stroke-linejoin="round" stroke-miterlimit="4" stroke="#1ac3fb" stroke-width="2"><g><path d="M 24.818 56.167307C 12.5753 51.096207 6.7616 37.060707 11.8327 24.818007C 16.9038 12.575307 30.9393 6.761607 43.182 11.832707C 55.4247 16.903807 61.2384 30.939307 56.1673 43.182007C 51.0962 55.424707 37.0607 61.238407 24.818 56.167307Z"></path></g></g></g><g id="g-root-tx_integrac_1ursus11ruvzls-stroke" data-item-order="0" transform="translate(519, 207)"></g><g id="g-root-exch_mccp1t1rkz85o-stroke" data-item-order="0" transform="translate(183, 231)"><g id="exch_mccp1t1rkz85o-stroke" fill="none" stroke-linecap="round" stroke-linejoin="round" stroke-miterlimit="4" stroke="#f366bb" stroke-width="2"><g><path d="M 18.004 33L 20.004 31L 18.004 29M 25.504 20.5L 33.504 20.5L 33.504 33.5L 25.504 33.5ZM 14 26C 14 28.761424 16.238576 31 19 31L 20 31M 29.504 11L 27.504 13L 29.504 15M 33.5 18C 33.5 15.238576 31.261424 13 28.5 13L 27.5 13M 25.504 29.5L 33.504 29.5M 29.5 31.25C 29.361929 31.25 29.25 31.361929 29.25 31.5C 29.25 31.638071 29.361929 31.75 29.5 31.75C 29.638071 31.75 29.75 31.638071 29.75 31.5C 29.75 31.361929 29.638071 31.25 29.5 31.25L 29.5 31.25M 10.504 10.5L 23.504 10.5L 23.504 20.5L 10.504 20.5ZM 10.504 13.5L 23.504 13.5M 13.004 15.5L 17.504 15.5M 13.004 17.5L 15.004 17.5"></path></g></g></g><g id="g-root-tx_actualiz_hz19ld1ruulfo-stroke" data-item-order="0" transform="translate(435, 435)"></g><g id="g-root-door_1uo1e4x1ruysxw-stroke" data-item-order="0" transform="translate(471, 231)"><g id="door_1uo1e4x1ruysxw-stroke" fill="none" stroke-linecap="round" stroke-linejoin="round" stroke-miterlimit="4" stroke="#43dd93" stroke-width="2"><g><path d="M 22.5 22.5L 22.5 29.5C 22.5 30.052285 22.052285 30.5 21.5 30.5L 17.5 30.5M 11.9 12.7L 16.947 15.224C 17.285729 15.393264 17.499798 15.739334 17.5 16.118L 17.5 32.691C 17.499994 32.864364 17.410185 33.025353 17.262671 33.116429C 17.115158 33.207504 16.930993 33.215667 16.776 33.138L 12.053 30.777C 11.713948 30.607575 11.499823 30.261026 11.5 29.882L 11.5 13.5C 11.5 12.947715 11.947715 12.5 12.5 12.5L 21.5 12.5C 22.052285 12.5 22.5 12.947715 22.5 13.5L 22.5 14.5M 24.5 10.5L 29.5 10.5L 29.5 10.5L 29.5 11.5C 29.5 12.052285 29.052285 12.5 28.5 12.5L 25.5 12.5C 24.947715 12.5 24.5 12.052285 24.5 11.5L 24.5 10.5L 24.5 10.5ZM 28.414 14.414C 27.633 15.194764 26.367 15.194764 25.586 14.414M 30.536 16.536C 28.583272 18.489243 25.416728 18.489243 23.464 16.536M 32.657 18.657C 29.532772 21.781389 24.467228 21.781389 21.343 18.657"></path></g></g></g><g id="g-root-1_13ymqj51rurtad-stroke" data-item-order="0" transform="translate(387, 147)"><g id="1_13ymqj51rurtad-stroke" fill="none" stroke-linecap="round" stroke-linejoin="round" stroke-miterlimit="4" stroke="#1ac3fb" stroke-width="2"><g><path d="M 25.25 25.75L 31.75 25.75C 31.75 25.75 33.25 25.75 33.25 27.25L 33.25 31.75C 33.25 31.75 33.25 33.25 31.75 33.25L 25.25 33.25C 25.25 33.25 23.75 33.25 23.75 31.75L 23.75 27.25C 23.75 27.25 23.75 25.75 25.25 25.75M 25 25.771L 25 24.25C 25.000001 22.317004 26.567004 20.750001 28.500001 20.750001C 30.432997 20.750001 32.000001 22.317004 32.000001 24.250001L 32 25.771M 27 29.5L 28 30.5L 30 28.5M 20.75 28.75L 11.5 28.75C 11.085786 28.750001 10.75 28.414214 10.75 28.000001L 10.75 11.5C 10.75 11.085786 11.085786 10.75 11.5 10.75L 25 10.75C 25.414214 10.75 25.75 11.085786 25.75 11.5L 25.75 18M 21.25 24.25L 10.75 24.25M 15.625 16.375C 15.625 17.824748 16.800253 19 18.25 19C 19.699748 19 20.875 17.824748 20.875 16.375C 20.875 14.925253 19.699748 13.75 18.25 13.75C 16.800253 13.75 15.625 14.925253 15.625 16.375M 13.75 24.25C 13.749052 22.190059 15.146952 20.392485 17.143669 19.886046C 19.140385 19.379606 21.226043 20.293625 22.207 22.105"></path></g></g></g><g id="g-root-user_1q6zahd1runmyq-stroke" data-item-order="0" transform="translate(315, 279)"><g id="user_1q6zahd1runmyq-stroke" fill="none" stroke-linecap="round" stroke-linejoin="round" stroke-miterlimit="4" stroke="#b7b7b7" stroke-width="2"><g><path d="M 25 43C 27.209139 43 29 41.209137 29 39C 29 36.790863 27.209139 35 25 35C 22.790861 35 21 36.790863 21 39C 21 41.209137 22.790861 43 25 43ZM 18 50C 18 46.13401 21.134007 43 25 43C 28.865993 43 32 46.13401 32 50ZM 37 32.902L 37 55C 37 56.104568 36.104568 57 35 57L 15 57C 13.895431 57 13 56.104568 13 55L 13 29C 13 27.89543 13.895431 27 15 27L 34.512001 27M 54.956001 11L 46.169998 17L 34.725998 17C 30.474001 17 26.926001 23.92 24.566 27M 37.718002 23L 31.743999 30.454C 30.704128 31.493965 30.704168 33.179993 31.744085 34.219913C 32.784004 35.259834 34.470032 35.259872 35.510002 34.220001L 43.667999 27L 48.778 27C 51.200001 27 55 23.552 55 23.552"></path></g></g></g><g id="g-root-tx_facilida_9mocx1rut8nc-stroke" data-item-order="0" transform="translate(39, 339)"></g><g id="g-root-refr_145h9751rkwe87-stroke" data-item-order="0" transform="translate(267, 147)"><g id="refr_145h9751rkwe87-stroke" fill="none" stroke-linecap="round" stroke-linejoin="round" stroke-miterlimit="4" stroke="#cb68f9" stroke-width="2"><g><path d="M 18.444 22.856C 18.037 24.561 18.583 26.044 21.444 25.377C 23.695 27.268 24.811 26.371 25.262 24.488C 25.671 22.777 24.59 19.537 22.946 17.934C 22.834625 17.825202 22.678924 17.774496 22.52484 17.796844C 22.370756 17.819192 22.235876 17.912043 22.16 18.048C 21.022 20.085 18.915 20.892 18.444 22.856ZM 21.5 27.5C 21.328 25.294 21.359 22.457 22.371 20.85M 28.477 16.5C 26.169801 13.785131 22.414312 12.797231 19.069874 14.025408C 15.725437 15.253585 13.501846 18.437181 13.5 22L 13.5 24.5M 16.5 20.5L 13.5 24.5L 10.5 20.5M 15.523 27.505C 17.830792 30.220566 21.587536 31.208205 24.932471 29.978729C 28.277406 28.749252 30.50025 25.563734 30.5 22L 30.5 19.5M 27.5 23.5L 30.5 19.5L 33.5 23.5"></path></g></g></g><g id="g-root-tx_identifi_1um6l011ruxgqq-stroke" data-item-order="0" transform="translate(435, 123)"></g><g id="g-root-smar_dhyzm91rktn9e-stroke" data-item-order="0" transform="translate(183, 351)"><g id="smar_dhyzm91rktn9e-stroke" fill="none" stroke-linecap="round" stroke-linejoin="round" stroke-miterlimit="4" stroke="#fb6762" stroke-width="2"><g><path d="M 28.667 29.5L 15.667 29.5M 22.167 31.75L 22.167 31.75M 22.417 31.5C 22.417 31.638071 22.305071 31.75 22.167 31.75M 22.417 31.5L 22.417 31.5M 22.167 31.25C 22.305071 31.25 22.417 31.361929 22.417 31.5M 22.167 31.25L 22.167 31.25M 21.917 31.5C 21.916732 31.433614 21.942986 31.36987 21.989928 31.322928C 22.03687 31.275986 22.100614 31.249732 22.167 31.249999M 21.917 31.5L 21.917 31.5M 22.167 31.75C 22.100614 31.750266 22.03687 31.724013 21.989928 31.677071C 21.942986 31.630129 21.916732 31.566385 21.917 31.499999M 17.667 10.5L 26.667 10.5C 26.667 10.5 28.667 10.5 28.667 12.5L 28.667 31.5C 28.667 31.5 28.667 33.5 26.667 33.5L 17.667 33.5C 17.667 33.5 15.667 33.5 15.667 31.5L 15.667 12.5C 15.667 12.5 15.667 10.5 17.667 10.5M 18.667 13.5L 18.667 14.5M 17.667 15.5C 17.667 16.052285 18.114715 16.5 18.667 16.5C 19.219285 16.5 19.667 16.052285 19.667 15.5C 19.667 14.947715 19.219285 14.5 18.667 14.5C 18.114715 14.5 17.667 14.947715 17.667 15.5M 17.667 20.5C 17.667 21.052285 18.114715 21.5 18.667 21.5C 19.219285 21.5 19.667 21.052285 19.667 20.5C 19.667 19.947715 19.219285 19.5 18.667 19.5C 18.114715 19.5 17.667 19.947715 17.667 20.5M 17.667 25.5C 17.667 26.052285 18.114715 26.5 18.667 26.5C 19.219285 26.5 19.667 26.052285 19.667 25.5C 19.667 24.947715 19.219285 24.5 18.667 24.5C 18.114715 24.5 17.667 24.947715 17.667 25.5M 18.667 16.5L 18.667 19.5M 18.667 21.5L 18.667 24.5M 18.667 26.5L 18.667 27.5M 21.667 15.5L 26.667 15.5M 21.667 20.5L 25.667 20.5M 21.667 25.5L 26.667 25.5"></path></g></g></g><g id="g-root-stac_1qbyk7l1rv07i8-stroke" data-item-order="0" transform="translate(471, 351)"><g id="stac_1qbyk7l1rv07i8-stroke" fill="none" stroke-linecap="round" stroke-linejoin="round" stroke-miterlimit="4" stroke="#a6da37" stroke-width="2"><g><path d="M 21.95 24.1997C 23.1649 24.1997 24.1499 23.2148 24.1499 21.9999C 24.1499 20.7849 23.1649 19.80005 21.95 19.80005C 20.735 19.80005 19.75012 20.7849 19.75012 21.9999C 19.75012 23.2148 20.735 24.1997 21.95 24.1997ZM 17.44995 30.3C 17.44995 27.8 19.44995 25.8 21.95 25.8C 24.45 25.8 26.45 27.8 26.45 30.3L 17.44995 30.3ZM 30.25 33.3L 13.75 33.3C 12.05 33.3 10.75 32 10.75 30.3L 10.75 19.80005C 10.75 18.10005 12.05 16.80005 13.75 16.80005L 30.25 16.80005C 31.95 16.80005 33.25 18.10005 33.25 19.80005L 33.25 30.3C 33.25 31.9 31.85 33.3 30.25 33.3ZM 13.65002 13.69995L 30.25 13.69995M 13.65002 13.69995L 30.25 13.69995M 16.15002 10.699951L 27.75 10.699951"></path></g></g></g><g id="g-root-tx_personal_1q6zjyp1ruw07i-stroke" data-item-order="0" transform="translate(519, 339)"></g><g id="g-root-tx_segurida_142dxox1ruul1m-stroke" data-item-order="0" transform="translate(135, 435)"></g><g id="g-root-key_1up9wi91rv7awy-stroke" data-item-order="0" transform="translate(267, 435)"><g id="key_1up9wi91rv7awy-stroke" fill="none" stroke-linecap="round" stroke-linejoin="round" stroke-miterlimit="4" stroke="#f79438" stroke-width="2"><g><path d="M 11.5 13.775L 11.5 21.412C 11.560187 26.581141 14.843303 31.162084 19.719 32.879999L 20.84 33.294C 21.588882 33.569015 22.411117 33.569015 23.16 33.293999L 24.281 32.88C 29.156695 31.162084 32.439811 26.581141 32.499999 21.411999L 32.5 13.775C 32.497947 13.161695 32.130553 12.608639 31.566 12.369C 28.536794 11.104654 25.28233 10.468799 22 10.5C 18.71767 10.468799 15.463206 11.104654 12.434 12.369C 11.869447 12.608639 11.502054 13.161695 11.5 13.775ZM 28.5 15.5L 26.5 15.5L 22.146 19.854C 20.3852 19.059146 18.307925 19.636343 17.209591 21.225642C 16.111257 22.814941 16.305767 24.962124 17.671822 26.328178C 19.037876 27.694233 21.185059 27.888743 22.774358 26.790409C 24.363657 25.692075 24.940854 23.6148 24.146 21.854L 28.5 17.5ZM 19.25 23.5C 19.25 24.190356 19.809644 24.75 20.5 24.75C 21.190356 24.75 21.75 24.190356 21.75 23.5C 21.75 22.809644 21.190356 22.25 20.5 22.25C 19.809644 22.25 19.25 22.809644 19.25 23.5Z"></path></g></g></g><g id="g-root-tx_sostenib_1umt2351rut8ng-stroke" data-item-order="0" transform="translate(99, 123)"></g><g id="g-root-2_1czvhld1ruxe6l-stroke" data-item-order="0" transform="translate(387, 435)"><g id="2_1czvhld1ruxe6l-stroke" fill="none" stroke-linecap="round" stroke-linejoin="round" stroke-miterlimit="4" stroke="#ffe711" stroke-width="2"><g><path d="M 16.618 21.996L 22.004 21.996L 25.921 26.892M 28.123 30.319C 28.122856 31.143663 28.791337 31.812261 29.616 31.812261C 30.440663 31.812261 31.109144 31.143663 31.109 30.319C 31.109144 29.494337 30.440663 28.825739 29.616 28.825739C 28.791337 28.825739 28.122856 29.494337 28.123 30.319M 11.115 19.213C 11.427069 17.977447 11.947163 16.804024 12.653 15.743M 15.045 13.168C 16.039963 12.369844 17.169316 11.755557 18.38 11.354M 21.842 10.754C 23.115683 10.74337 24.38249 10.941667 25.592 11.341M 28.7 12.973C 29.723209 13.732801 30.613003 14.657402 31.333 15.709M 32.812 18.9C 33.163372 20.125412 33.305698 21.401282 33.233 22.674M 32.479 26.105C 32.040712 27.23971 31.404512 28.287627 30.599999 29.199999M 26.183 32.444C 22.717082 33.827532 18.79077 33.403309 15.700362 31.31139C 12.609954 29.21947 10.757275 25.731854 10.754 21.999999"></path></g></g></g><g id="g-root-tx_desglose_mfh8sx1ruyu4t-stroke" data-item-order="0" transform="translate(69, 39)"></g><g id="g-root-tx_compatib_v8mcpd1rut7gm-stroke" data-item-order="0" transform="translate(15, 195)"></g></g></g></svg>