<svg id="Layer_1" viewBox="0 0 512 512" xmlns="http://www.w3.org/2000/svg" data-name="Layer 1" width="300" height="300" version="1.1" xmlns:xlink="http://www.w3.org/1999/xlink" xmlns:svgjs="http://svgjs.dev/svgjs"><g width="100%" height="100%" transform="matrix(1,0,0,1,0,0)"><g fill="#ff695a"><path d="m108.754 213.254c-57.691 0-104.626-46.936-104.626-104.627s46.935-104.627 104.626-104.627 104.655 46.936 104.655 104.627-46.948 104.627-104.655 104.627zm0-197.234c-51.064 0-92.608 41.543-92.608 92.607s41.544 92.607 92.608 92.607 92.637-41.543 92.637-92.607-41.557-92.607-92.637-92.607z" fill="#ffffff" fill-opacity="1" data-original-color="#ff695aff" stroke="none" stroke-opacity="1"/><path d="m108.754 187.997c-43.749 0-79.341-35.605-79.341-79.37s35.592-79.37 79.341-79.37 79.37 35.605 79.37 79.37-35.605 79.37-79.37 79.37zm0-146.721c-37.122 0-67.323 30.213-67.323 67.351s30.201 67.351 67.323 67.351 67.352-30.213 67.352-67.351-30.214-67.351-67.352-67.351z" fill="#ffffff" fill-opacity="1" data-original-color="#ff695aff" stroke="none" stroke-opacity="1"/><path d="m131.624 127.847c-1.02 0-2.053-.26-2.999-.807l-22.876-13.209c-1.859-1.073-3.004-3.058-3.004-5.204v-31.776c0-3.319 2.69-6.01 6.009-6.01s6.009 2.69 6.009 6.01v28.307l19.872 11.475c2.875 1.659 3.859 5.335 2.199 8.209-1.113 1.928-3.133 3.006-5.21 3.006z" fill="#ffffff" fill-opacity="1" data-original-color="#ff695aff" stroke="none" stroke-opacity="1"/><path d="m108.754 62.791c-3.319 0-6.009-2.69-6.009-6.01s2.69-6.052 6.009-6.052 6.009 2.647 6.009 5.967v.085c0 3.319-2.69 6.01-6.009 6.01z" fill="#ffffff" fill-opacity="1" data-original-color="#ff695aff" stroke="none" stroke-opacity="1"/><path d="m134.692 69.736c-.63 0-1.271-.1-1.901-.31-3.148-1.05-4.85-4.453-3.801-7.602s4.467-4.896 7.616-3.843c3.148 1.049 4.864 4.41 3.815 7.559l-.028.085c-.839 2.518-3.185 4.11-5.7 4.11z" fill="#ffffff" fill-opacity="1" data-original-color="#ff695aff" stroke="none" stroke-opacity="1"/><path d="m153.66 88.728c-1.942 0-3.848-.939-5.005-2.677-1.841-2.761-1.095-6.492 1.667-8.333l.085-.057c2.761-1.844 6.493-1.095 8.333 1.667 1.841 2.761 1.095 6.492-1.667 8.333l-.085.057c-1.024.684-2.183 1.01-3.328 1.01z" fill="#ffffff" fill-opacity="1" data-original-color="#ff695aff" stroke="none" stroke-opacity="1"/><path d="m160.685 114.637h-.085c-3.319 0-6.009-2.69-6.009-6.01s2.69-6.01 6.009-6.01 6.052 2.69 6.052 6.01-2.648 6.01-5.967 6.01z" fill="#ffffff" fill-opacity="1" data-original-color="#ff695aff" stroke="none" stroke-opacity="1"/><path d="m153.735 140.602c-1.146 0-2.303-.326-3.328-1.01l-.085-.057c-2.761-1.841-3.508-5.572-1.667-8.333 1.841-2.762 5.571-3.509 8.333-1.667l.085.057c2.761 1.841 3.508 5.572 1.667 8.333-1.158 1.737-3.063 2.677-5.005 2.677z" fill="#ffffff" fill-opacity="1" data-original-color="#ff695aff" stroke="none" stroke-opacity="1"/><path d="m134.69 159.572c-2.192 0-4.296-1.202-5.346-3.301l-.028-.057c-1.484-2.969-.281-6.578 2.688-8.062 2.969-1.486 6.578-.281 8.062 2.688s.295 6.606-2.673 8.091c-.87.435-1.794.642-2.703.642z" fill="#ffffff" fill-opacity="1" data-original-color="#ff695aff" stroke="none" stroke-opacity="1"/><path d="m108.754 166.524c-3.319 0-6.009-2.647-6.009-5.967v-.085c0-3.319 2.69-6.01 6.009-6.01s6.009 2.69 6.009 6.01-2.69 6.052-6.009 6.052z" fill="#ffffff" fill-opacity="1" data-original-color="#ff695aff" stroke="none" stroke-opacity="1"/><path d="m82.807 159.561c-.897 0-1.807-.202-2.663-.63-2.969-1.484-4.186-5.065-2.702-8.034l.028-.057c1.484-2.968 5.093-4.173 8.062-2.688 2.969 1.484 4.172 5.094 2.688 8.062-1.056 2.113-3.197 3.346-5.414 3.346z" fill="#ffffff" fill-opacity="1" data-original-color="#ff695aff" stroke="none" stroke-opacity="1"/><path d="m63.802 140.602c-1.947 0-3.858-.944-5.014-2.689-1.834-2.767-1.078-6.495 1.688-8.329l.085-.057c2.766-1.837 6.496-1.079 8.329 1.688 1.834 2.767 1.078 6.495-1.688 8.329l-.085.057c-1.021.678-2.175 1.001-3.315 1.001z" fill="#ffffff" fill-opacity="1" data-original-color="#ff695aff" stroke="none" stroke-opacity="1"/><path d="m56.937 114.637c-3.319 0-6.052-2.69-6.052-6.01s2.648-6.01 5.967-6.01h.085c3.319 0 6.009 2.69 6.009 6.01s-2.69 6.01-6.009 6.01z" fill="#ffffff" fill-opacity="1" data-original-color="#ff695aff" stroke="none" stroke-opacity="1"/><path d="m63.877 88.728c-1.141 0-2.293-.323-3.315-1.001l-.085-.057c-2.766-1.834-3.522-5.562-1.688-8.329 1.834-2.766 5.563-3.522 8.329-1.688l.085.057c2.766 1.834 3.522 5.562 1.688 8.329-1.156 1.744-3.067 2.689-5.014 2.689z" fill="#ffffff" fill-opacity="1" data-original-color="#ff695aff" stroke="none" stroke-opacity="1"/><path d="m82.844 69.736c-2.516 0-4.861-1.592-5.7-4.11-1.049-3.148.638-6.595 3.787-7.644 3.149-1.056 6.538.609 7.587 3.758l.028.085c1.049 3.148-.652 6.552-3.801 7.602-.63.21-1.271.31-1.901.31z" fill="#ffffff" fill-opacity="1" data-original-color="#ff695aff" stroke="none" stroke-opacity="1"/></g><path d="m501.863 461.938h-68.23c-3.319 0-6.009-2.69-6.009-6.01v-315.355c0-3.319 2.69-6.01 6.009-6.01h68.23c3.319 0 6.009 2.69 6.009 6.01v315.354c0 3.319-2.69 6.01-6.009 6.01zm-62.221-12.02h56.211v-303.335h-56.211z" fill="#ffffff" fill-opacity="1" data-original-color="#2e3760ff" stroke="none" stroke-opacity="1"/><path d="m404.89 461.938h-68.202c-3.319 0-6.009-2.69-6.009-6.01v-263.679c0-3.319 2.69-6.01 6.009-6.01h68.202c3.319 0 6.009 2.69 6.009 6.01v263.679c0 3.319-2.69 6.01-6.009 6.01zm-62.192-12.02h56.183v-251.659h-56.183z" fill="#ffffff" fill-opacity="1" data-original-color="#2e3760ff" stroke="none" stroke-opacity="1"/><path d="m307.917 461.938h-68.202c-3.319 0-6.009-2.69-6.009-6.01v-212.003c0-3.319 2.69-6.01 6.009-6.01h68.202c3.319 0 6.009 2.69 6.009 6.01v212.003c0 3.319-2.69 6.01-6.009 6.01zm-62.192-12.02h56.183v-199.983h-56.183z" fill="#ffffff" fill-opacity="1" data-original-color="#2e3760ff" stroke="none" stroke-opacity="1"/><path d="m210.943 461.938h-49.72c-3.319 0-6.009-2.69-6.009-6.01s2.69-6.01 6.009-6.01h43.71v-148.309h-56.183v43.824c0 3.319-2.69 6.01-6.009 6.01s-6.009-2.69-6.009-6.01v-49.834c0-3.319 2.69-6.01 6.009-6.01h68.202c3.319 0 6.009 2.69 6.009 6.01v160.328c0 3.319-2.69 6.01-6.009 6.01z" fill="#ffffff" fill-opacity="1" data-original-color="#2e3760ff" stroke="none" stroke-opacity="1"/><path d="m151.243 248.121c-2.604 0-5.004-1.706-5.768-4.333-.926-3.188.906-6.522 4.093-7.448 41.203-11.977 105.641-42.514 168.167-79.693 56.306-33.481 103.037-67.373 132.136-95.574l-12.157 3.522c-3.187.92-6.521-.912-7.444-4.101-.924-3.188.912-6.521 4.1-7.444l33.278-9.641c.245-.075.494-.134.745-.177.364-.062.734-.099 1.093-.085.004 0 .008.002.011 0 1.265.019 2.53.434 3.595 1.262.11.086.218.176.322.27 1.108.99 1.765 2.306 1.948 3.679.037.274.055.552.053.829-.002.546-.079 1.093-.23 1.623l-8.782 33.489c-.842 3.21-4.125 5.133-7.337 4.288-3.21-.842-5.13-4.127-4.289-7.337l2.89-11.019c-69.511 66.897-223.732 154.102-304.744 177.649-.56.163-1.125.24-1.68.24z" fill="#ffffff" fill-opacity="1" data-original-color="#ff695aff" stroke="none" stroke-opacity="1"/><path d="m107.705 508h-22.677c-6.689 0-12.132-5.43-12.132-12.104v-3.987c-4.776-1.47-9.386-3.379-13.784-5.706l-2.802 2.802c-2.287 2.287-5.331 3.546-8.572 3.546s-6.286-1.259-8.572-3.546l-16.044-16.044c-2.296-2.296-3.556-5.352-3.546-8.604.01-3.239 1.278-6.271 3.572-8.537l2.776-2.79c-2.33-4.391-4.24-9.007-5.711-13.798h-3.954c-6.69 0-12.132-5.43-12.132-12.104v-22.706c0-6.674 5.442-12.104 12.132-12.104h3.954c1.471-4.791 3.381-9.406 5.711-13.797l-2.812-2.826c-2.277-2.276-3.536-5.315-3.536-8.548s1.259-6.271 3.546-8.559l16.043-16.043c4.727-4.727 12.417-4.727 17.145 0l2.8 2.8c4.426-2.348 9.038-4.26 13.786-5.715v-3.977c0-6.674 5.442-12.104 12.132-12.104h22.677c6.69 0 12.132 5.43 12.132 12.104v3.961c4.757 1.471 9.368 3.387 13.786 5.73l2.8-2.801c4.726-4.725 12.417-4.725 17.144 0l16.044 16.045c2.287 2.286 3.546 5.325 3.546 8.558s-1.259 6.271-3.546 8.559l-2.823 2.823c2.343 4.407 4.26 9.021 5.729 13.789h3.957c6.69 0 12.132 5.431 12.132 12.104v22.706c0 6.674-5.442 12.104-12.132 12.104h-3.957c-1.469 4.77-3.386 9.382-5.729 13.79l2.824 2.824c2.268 2.24 3.536 5.271 3.546 8.511.01 3.253-1.25 6.309-3.546 8.605l-16.043 16.043c-4.728 4.728-12.417 4.726-17.145 0l-2.8-2.8c-4.426 2.348-9.037 4.26-13.785 5.715v3.977c0 6.674-5.442 12.104-12.132 12.104zm-49.604-35.292c1.074 0 2.156.288 3.124.877 5.905 3.596 12.334 6.259 19.107 7.913 2.69.657 4.583 3.068 4.583 5.838v8.561s.041.084.113.084h22.677c.073 0 .113-.079.114-.08v-8.564c0-2.777 1.903-5.193 4.604-5.843 6.689-1.608 13.11-4.27 19.086-7.908 2.367-1.44 5.415-1.076 7.375.884l6.038 6.038c.035.034.113.034.147 0l16.043-16.043c.04-.04.022-.101.022-.101l-6.088-6.085c-1.963-1.963-2.326-5.016-.877-7.385 3.623-5.924 6.292-12.347 7.933-19.092.655-2.693 3.067-4.589 5.839-4.589h8.532c.073 0 .113-.079.114-.08v-22.71s-.041-.085-.114-.085h-8.532c-2.771 0-5.184-1.896-5.839-4.589-1.641-6.744-4.31-13.167-7.933-19.091-1.449-2.369-1.086-5.422.877-7.385l6.066-6.066c.028-.028.028-.091 0-.118l-16.044-16.045c-.034-.033-.112-.033-.146 0l-6.039 6.038c-1.96 1.958-5.007 2.324-7.374.883-5.958-3.627-12.387-6.299-19.107-7.94-2.69-.657-4.583-3.068-4.583-5.838v-8.532s-.041-.084-.114-.084h-22.677c-.072 0-.113.079-.113.08v8.564c0 2.777-1.903 5.193-4.604 5.843-6.688 1.608-13.11 4.269-19.086 7.907-2.367 1.442-5.413 1.076-7.374-.883l-6.038-6.037c-.034-.035-.113-.034-.147 0l-16.044 16.044c-.028.028-.028.091 0 .118l6.048 6.077c1.955 1.964 2.313 5.011.867 7.375-3.592 5.873-6.251 12.296-7.905 19.091-.655 2.693-3.067 4.589-5.839 4.589h-8.532c-.073 0-.113.08-.114.081v22.71s.041.084.114.084h8.532c2.771 0 5.184 1.896 5.839 4.589 1.654 6.796 4.313 13.22 7.905 19.092 1.446 2.364 1.088 5.411-.867 7.375l-6.038 6.066c-.032.028-.05.089-.01.128l16.044 16.045c.034.033.112.033.146 0l6.038-6.038c1.159-1.159 2.698-1.761 4.251-1.761z" fill="#ffffff" fill-opacity="1" data-original-color="#ff695aff" stroke="none" stroke-opacity="1"/><path d="m96.367 456.239c-22.32 0-40.479-18.159-40.479-40.479s18.159-40.451 40.479-40.451 40.45 18.146 40.45 40.451-18.146 40.479-40.45 40.479zm0-68.91c-15.693 0-28.46 12.754-28.46 28.432s12.767 28.459 28.46 28.459 28.432-12.767 28.432-28.459-12.754-28.432-28.432-28.432z" fill="#ffffff" fill-opacity="1" data-original-color="#ff695aff" stroke="none" stroke-opacity="1"/></g></svg>