<?xml version="1.0" encoding="utf-8" standalone="yes"?>
<!DOCTYPE svg PUBLIC "-//W3C//DTD SVG 1.1//EN" "http://www.w3.org/Graphics/SVG/1.1/DTD/svg11.dtd">
<svg width="637" height="506" viewBox="0 0 637 506" style="fill:none;stroke:none;fill-rule:evenodd;clip-rule:evenodd;stroke-linecap:round;stroke-linejoin:round;stroke-miterlimit:1.5;" version="1.1" xmlns="http://www.w3.org/2000/svg" xmlns:xlink="http://www.w3.org/1999/xlink"><style class="text-font-style fontImports" data-font-family="Courier New"></style><g id="items" style="isolation: isolate"><g id="blend" style="mix-blend-mode: normal"><g id="g-root-0.cr-big_cr_de7vhr10o18uj-fill" data-item-order="-82940" transform="translate(254.00003051757812, 219.00006103515625)"><g id="0.cr-big_cr_de7vhr10o18uj-fill" stroke="none" fill="#6b6b6b"><g><path d="M 10 70C 10.000003 103.137088 36.862918 130.000003 70.000003 130.000003C 103.137088 130.000003 130.000003 103.137088 130.000003 70.000003C 130.000003 36.862918 103.137088 10.000003 70.000003 10.000003C 36.862918 10.000003 10.000003 36.862918 10.000003 70.000003"></path></g></g></g><g id="g-root-4.cu_sy_dg3ar310o17us-fill" data-item-order="-82936" transform="translate(170.02593994140625, 134.99456787109375)"><g id="4.cu_sy_dg3ar310o17us-fill" stroke="none" fill="#776f30"><g><path d="M 153.974 94L 153.974 10C 74.4569 10.0141 10.000008 74.4797 10.000003 154L 10 154.005L 94.0002 154.005L 94.0002 154C 94.0002 120.872 120.849 94.0141 153.974 94Z"></path></g></g></g><g id="g-root-3.cu_sy_9257vz10o16vh-fill" data-item-order="-82932" transform="translate(170.00811767578125, 278.99981689453125)"><g id="3.cu_sy_9257vz10o16vh-fill" stroke="none" fill="#60703f"><g><path d="M 94 10L 10 10.000003C 10.0075 89.52 74.4713 153.982 153.992 153.986L 153.992 69.9858C 120.863 69.9815 94.0077 43.1279 94 10Z"></path></g></g></g><g id="g-root-2.cu_sy_meuofj10o17gm-fill" data-item-order="-82928" transform="translate(313.9996337890625, 279.00390625)"><g id="2.cu_sy_meuofj10o17gm-fill" stroke="none" fill="#346778"><g><path d="M 10 70C 43.1369 69.9998 69.9997 43.137 69.9997 10.000008L 154 10C 154 89.5289 89.5289 154 10.000062 154L 10 70Z"></path></g></g></g><g id="g-root-1.cu_sy_vbqmun10o1827-fill" data-item-order="-82924" transform="translate(314, 135.01190185546875)"><g id="1.cu_sy_vbqmun10o1827-fill" stroke="none" fill="#41735b"><g><path d="M 70.0067 153.988L 154.007 153.988C 154 74.4645 89.5318 9.999996 10.0068 10L 10 10L 10.000002 94.0001C 10.0022 94.0001 10.0045 94.0001 10.0067 94.0001C 43.1398 94.0001 70.0002 120.856 70.0067 153.988Z"></path></g></g></g><g id="g-root-tx_ventajas_1ha3i9b10o2mf4-fill" data-item-order="0" transform="translate(26, 3)"><g id="tx_ventajas_1ha3i9b10o2mf4-fill" stroke="none" fill="#f4f4f4"><g><text style="font: bold 25px &quot;Courier New&quot;, monospace; white-space: pre;" font-weight="bold" font-size="25px" font-family="'Courier New', monospace"><tspan x="13" y="39" dominant-baseline="ideographic">Ventajas Clave del Sistema de Gesti칩n </tspan><tspan x="223" y="69" dominant-baseline="ideographic">Documental</tspan></text></g></g></g><g id="g-root-tx_segurida_1ha3lf311hsxza-fill" data-item-order="0" transform="translate(26, 111)"><g id="tx_segurida_1ha3lf311hsxza-fill" stroke="none" fill="#f4f4f4"><g><text style="font: 20px &quot;Courier New&quot;, monospace; white-space: pre;" font-size="20px" font-family="'Courier New', monospace"><tspan x="20" y="33" dominant-baseline="ideographic">Seguridad de </tspan><tspan x="116" y="57" dominant-baseline="ideographic">Datos</tspan></text></g></g></g><g id="g-root-tx_resultad_i0a7n311hucqv-fill" data-item-order="0" transform="translate(434, 111)"><g id="tx_resultad_i0a7n311hucqv-fill" stroke="none" fill="#f4f4f4"><g><text style="font: 20px &quot;Courier New&quot;, monospace; white-space: pre;" font-size="20px" font-family="'Courier New', monospace"><tspan x="12" y="33" dominant-baseline="ideographic">Resultados </tspan><tspan x="12" y="57" dominant-baseline="ideographic">M치s R치pidos</tspan></text></g></g></g><g id="g-root-lock_1ulk6y710xttkz-fill" data-item-order="0" transform="translate(217.9371337890625, 182.81341552734375)"></g><g id="g-root-runn_4hc6jz11836kt-fill" data-item-order="0" transform="translate(362.186767578125, 182.93682861328125)"></g><g id="g-root-1_8yeddb10o2n0p-fill" data-item-order="0" transform="translate(278, 242.99609375)"></g><g id="g-root-code_mdl44v117w8ay-fill" data-item-order="0" transform="translate(217.813232421875, 327.06304931640625)"></g><g id="g-root-chat_qofcj3117w746-fill" data-item-order="0" transform="translate(362.063232421875, 327.18670654296875)"></g><g id="g-root-tx_personal_91ityn11hszr5-fill" data-item-order="0" transform="translate(-10, 399)"><g id="tx_personal_91ityn11hszr5-fill" stroke="none" fill="#f4f4f4"><g><text style="font: 20px &quot;Courier New&quot;, monospace; white-space: pre;" font-size="20px" font-family="'Courier New', monospace"><tspan x="20" y="33" dominant-baseline="ideographic">Personalizaci칩n </tspan><tspan x="128" y="57" dominant-baseline="ideographic">Potente</tspan></text></g></g></g><g id="g-root-tx_platafor_4ikyen11hucr0-fill" data-item-order="0" transform="translate(434, 399)"><g id="tx_platafor_4ikyen11hucr0-fill" stroke="none" fill="#f4f4f4"><g><text style="font: 20px &quot;Courier New&quot;, monospace; white-space: pre;" font-size="20px" font-family="'Courier New', monospace"><tspan x="12" y="33" dominant-baseline="ideographic">Plataforma </tspan><tspan x="12" y="57" dominant-baseline="ideographic">Todo en Uno</tspan></text></g></g></g><g id="g-root-0.cr-big_cr_de7vhr10o18uj-stroke" data-item-order="-82940" transform="translate(254.00003051757812, 219.00006103515625)"><g id="0.cr-big_cr_de7vhr10o18uj-stroke" fill="none" stroke-linecap="round" stroke-linejoin="round" stroke-miterlimit="4" stroke="#2c2c2c" stroke-width="2"><g><path d="M 10 70C 10.000003 103.137088 36.862918 130.000003 70.000003 130.000003C 103.137088 130.000003 130.000003 103.137088 130.000003 70.000003C 130.000003 36.862918 103.137088 10.000003 70.000003 10.000003C 36.862918 10.000003 10.000003 36.862918 10.000003 70.000003"></path></g></g></g><g id="g-root-4.cu_sy_dg3ar310o17us-stroke" data-item-order="-82936" transform="translate(170.02593994140625, 134.99456787109375)"><g id="4.cu_sy_dg3ar310o17us-stroke" fill="none" stroke-linecap="round" stroke-linejoin="round" stroke-miterlimit="4" stroke="#2e2e28" stroke-width="2"><g><path d="M 153.974 94L 153.974 10C 74.4569 10.0141 10 74.4797 10 154L 10 154.0054L 94.0002 154.0054L 94.0002 154C 94.0002 120.8716 120.8489 94.0141 153.974 94Z"></path></g></g></g><g id="g-root-3.cu_sy_9257vz10o16vh-stroke" data-item-order="-82932" transform="translate(170.00811767578125, 278.99981689453125)"><g id="3.cu_sy_9257vz10o16vh-stroke" fill="none" stroke-linecap="round" stroke-linejoin="round" stroke-miterlimit="4" stroke="#2c2e29" stroke-width="2"><g><path d="M 94 10L 10 10C 10.0075 89.52 74.4713 153.9819 153.992 153.9862L 153.992 69.9858C 120.8633 69.9815 94.0077 43.1279 94 10Z"></path></g></g></g><g id="g-root-2.cu_sy_meuofj10o17gm-stroke" data-item-order="-82928" transform="translate(313.9996337890625, 279.00390625)"><g id="2.cu_sy_meuofj10o17gm-stroke" fill="none" stroke-linecap="round" stroke-linejoin="round" stroke-miterlimit="4" stroke="#292d2f" stroke-width="2"><g><path d="M 10 70C 43.1369 69.9998 69.9997 43.137 69.9997 10L 153.9998 10C 153.9998 89.5289 89.5289 153.9998 10.0001 154L 10 70Z"></path></g></g></g><g id="g-root-1.cu_sy_vbqmun10o1827-stroke" data-item-order="-82924" transform="translate(314, 135.01190185546875)"><g id="1.cu_sy_vbqmun10o1827-stroke" fill="none" stroke-linecap="round" stroke-linejoin="round" stroke-miterlimit="4" stroke="#2a2e2c" stroke-width="2"><g><path d="M 70.0067 153.988L 154.0068 153.988C 154.0003 74.4645 89.5318 10 10.0068 10L 10 10L 10 94.0001C 10.0022 94.0001 10.0045 94.0001 10.0067 94.0001C 43.1398 94.0001 70.0002 120.8565 70.0067 153.988Z"></path></g></g></g><g id="g-root-tx_ventajas_1ha3i9b10o2mf4-stroke" data-item-order="0" transform="translate(26, 3)"></g><g id="g-root-tx_segurida_1ha3lf311hsxza-stroke" data-item-order="0" transform="translate(26, 111)"></g><g id="g-root-tx_resultad_i0a7n311hucqv-stroke" data-item-order="0" transform="translate(434, 111)"></g><g id="g-root-lock_1ulk6y710xttkz-stroke" data-item-order="0" transform="translate(217.9371337890625, 182.81341552734375)"><g id="lock_1ulk6y710xttkz-stroke" fill="none" stroke-linecap="round" stroke-linejoin="round" stroke-miterlimit="4" stroke="#ffe711" stroke-width="2"><g><path d="M 33 57L 13 57C 11.895431 57 11 56.104568 11 55L 11 13C 11 11.895431 11.895431 11 13 11L 39.580002 11C 40.112469 10.998518 40.623543 11.209428 41 11.586L 48.400002 19C 48.775097 19.374985 48.985886 19.88361 48.986 20.414L 48.986 27M 16.993999 41L 34.993999 41M 20 31L 22 31C 22.552284 31 23 31.447716 23 32L 23 41L 23 41L 19 41L 19 41L 19 32C 19 31.447716 19.447716 31 20 31ZM 31 41L 31 26C 31 25.447716 30.552284 25 30 25L 28 25C 27.447716 25 27 25.447716 27 26L 27 41M 39 33L 39 30C 39 29.447716 38.552284 29 38 29L 36 29C 35.447716 29 35 29.447716 35 30L 35 41M 40.993999 41.001999L 54.993999 41.001999C 54.993999 41.001999 56.993999 41.001999 56.993999 43.001999L 56.993999 55C 56.993999 55 56.993999 57 54.993999 57L 40.993999 57C 40.993999 57 38.993999 57 38.993999 55L 38.993999 43.001999C 38.993999 43.001999 38.993999 41.001999 40.993999 41.001999M 45.493999 49.125999C 45.493999 50.506714 46.613289 51.625999 47.993999 51.625999C 49.374714 51.625999 50.493999 50.506714 50.493999 49.125999C 50.493999 47.745289 49.374714 46.625999 47.993999 46.625999C 46.613289 46.625999 45.493999 47.745289 45.493999 49.125999M 53 38C 53 35.238579 50.761425 33 48 33C 45.238575 33 43 35.238579 43 38L 43 41L 53 41Z"></path></g></g></g><g id="g-root-runn_4hc6jz11836kt-stroke" data-item-order="0" transform="translate(362.186767578125, 182.93682861328125)"><g id="runn_4hc6jz11836kt-stroke" fill="none" stroke-linecap="round" stroke-linejoin="round" stroke-miterlimit="4" stroke="#43dd93" stroke-width="2"><g><path d="M 10 10M 31.652 32.700001L 34.251999 33.299999C 34.652 33.299999 35.052002 33.700001 35.052002 34.099998L 35.652 37.299999C 35.851997 38.900002 37.452 40.099998 39.052002 39.700001C 40.652 39.5 41.851997 37.900002 41.452 36.299999L 40.851997 33.099998C 40.452 30.299999 38.251999 27.9 35.251999 27.299999C 23.852001 25.1 28.052 24.700001 20.452 30.700001C 20.052 30.9 19.652 31.1 19.452 30.9L 15.852 29.1C 14.452 28.299999 12.652 28.9 11.852 30.5C 11.052 31.9 11.652 33.700001 13.252 34.5L 16.852001 36.299999C 17.852001 36.700001 18.852001 37.099998 20.052 37.099998C 21.652 37.099998 23.251999 36.5 24.652 35.5L 25.852001 34.5L 27.252001 39.5L 23.652 40.700001C 21.852001 41.5 20.452 42.900002 19.852001 44.700001C 19.251999 46.5 19.251999 48.5 20.052 50.099998L 21.052 52.700001C 21.452 53.900002 22.652 54.5 23.852001 54.5C 24.251999 54.5 24.652 54.5 25.052 54.299999C 26.652 53.700001 27.252001 51.900002 26.652 50.299999L 25.452 47.5C 25.052 46.844002 25.282 46.124001 25.852001 45.900002L 29.652 44.5L 35.851997 55.099998C 36.452 56.099998 37.452 56.5 38.452 56.5C 39.052002 56.5 39.452 56.299999 40.052002 56.099998C 41.452 55.299999 42.051998 53.5 41.052002 51.900002L 36.251999 43.700001M 46.540001 24.048L 56.492001 24.048M 46.540001 34L 53.506001 34M 46.540001 43.952L 49.526001 43.952M 23.062 23.9C 26.37571 23.900002 29.062 21.213709 29.062 17.9C 29.062 14.586292 26.37571 11.900001 23.062 11.900001C 19.748291 11.900001 17.062 14.586292 17.062 17.9C 17.062 21.213709 19.748291 23.900002 23.062 23.900002Z"></path></g></g></g><g id="g-root-1_8yeddb10o2n0p-stroke" data-item-order="0" transform="translate(278, 242.99609375)"><g id="1_8yeddb10o2n0p-stroke" fill="none" stroke-linecap="round" stroke-linejoin="round" stroke-miterlimit="4" stroke="#b7b7b7" stroke-width="2"><g><path d="M 17.514999 38.496998L 17.514999 45.996998M 17.514999 53.496998L 17.514999 60.997002M 17.514999 26.5L 17.514999 29.5C 17.514999 31.156855 18.858145 32.5 20.514999 32.5L 23.514999 32.5M 17.514999 68.5L 17.514999 71.5C 17.514999 73.156853 18.858145 74.5 20.514999 74.5L 23.514999 74.5M 31 32.497002L 40 32.497002M 31 74.497002L 40 74.497002M 17.514999 11.497L 17.514999 18.997M 71.5 38.5C 71.5 40.156857 70.156853 41.5 68.5 41.5L 50.5 41.5C 48.843143 41.5 47.5 40.156857 47.5 38.5L 47.5 14.5C 47.5 12.843145 48.843143 11.5 50.5 11.5L 59.5 11.5C 61.398781 11.602965 63.205471 12.351254 64.621002 13.621L 69.378998 18.379C 70.648743 19.794529 71.397034 21.601219 71.5 23.5ZM 61 11.707L 61 19C 61 20.656855 62.343147 22 64 22L 71.287003 22M 71.5 77.5C 71.5 79.156853 70.156853 80.5 68.5 80.5L 50.5 80.5C 48.843143 80.5 47.5 79.156853 47.5 77.5L 47.5 53.5C 47.5 51.843143 48.843143 50.5 50.5 50.5L 59.842003 50.5C 61.544624 50.5 63.177456 51.176659 64.380997 52.380997L 69.378998 57.379002C 70.648743 58.794529 71.397034 60.601219 71.5 62.5ZM 61 50.608002L 61 58C 61 59.656853 62.343147 61 64 61L 71.290001 61"></path></g></g></g><g id="g-root-code_mdl44v117w8ay-stroke" data-item-order="0" transform="translate(217.813232421875, 327.06304931640625)"><g id="code_mdl44v117w8ay-stroke" fill="none" stroke-linecap="round" stroke-linejoin="round" stroke-miterlimit="4" stroke="#a6da37" stroke-width="2"><g><path d="M 31 30L 27 34L 31 38M 37 30L 41 34L 37 38M 34 52.5L 34 52.5C 34.276142 52.5 34.5 52.723858 34.5 53L 34.5 53C 34.5 53.276142 34.276142 53.5 34 53.5L 34 53.5C 33.723858 53.5 33.5 53.276142 33.5 53L 33.5 53C 33.5 52.723858 33.723858 52.5 34 52.5M 25 11L 43 11C 43 11 47 11 47 15L 47 53C 47 53 47 57 43 57L 25 57C 25 57 21 57 21 53L 21 15C 21 15 21 11 25 11M 47 49L 21 49M 47 19L 21 19M 31 15L 37 15"></path></g></g></g><g id="g-root-chat_qofcj3117w746-stroke" data-item-order="0" transform="translate(362.063232421875, 327.18670654296875)"><g id="chat_qofcj3117w746-stroke" fill="none" stroke-linecap="round" stroke-linejoin="round" stroke-miterlimit="4" stroke="#1ac3fb" stroke-width="2"><g><path d="M 37 43L 52 43M 37 47L 47 47M 39 35C 38.906212 32.585518 39.824265 30.241434 41.532852 28.53285C 43.241436 26.824266 45.585518 25.906208 48 26C 50.414482 25.906208 52.758568 26.824266 54.467152 28.53285C 56.175735 30.241434 57.093792 32.585518 57 35ZM 42 17C 42 20.313709 44.686291 23 48 23C 51.313709 23 54 20.313709 54 17C 54 13.686292 51.313709 11 48 11C 44.686291 11 42 13.686292 42 17ZM 53.942001 16.166C 52.881763 16.725609 51.698799 17.012241 50.5 17C 47.62558 17.001005 45.003582 15.358662 43.75 12.772M 11 57C 10.906209 54.585522 11.824266 52.241436 13.53285 50.532852C 15.241434 48.824268 17.58552 47.906208 20 48C 22.414482 47.906208 24.758568 48.824268 26.46715 50.532852C 28.175734 52.241436 29.093792 54.585522 29 57ZM 14 39C 14 42.313709 16.686291 45 20 45C 23.313709 45 26 42.313709 26 39C 26 35.686295 23.313709 33 20 33C 16.686291 33 14 35.686295 14 39ZM 25.945999 38.200001C 24.898565 38.738319 23.735598 39.012928 22.557999 39C 19.665928 39.000366 17.031187 37.338284 15.785999 34.727997M 35 39C 33.895432 39 33 39.895432 33 41L 33 51C 33 52.104568 33.895432 53 35 53L 38 53L 38 57L 43 53L 55 53C 56.104568 53 57 52.104568 57 51L 57 41C 57 39.895432 56.104568 39 55 39ZM 30 15L 15 15M 25 19L 15 19M 33 11C 34.104568 11 35 11.895431 35 13L 35 23C 35 24.104568 34.104568 25 33 25L 30 25L 30 30L 25 25L 13 25C 11.895431 25 11 24.104568 11 23L 11 13C 11 11.895431 11.895431 11 13 11Z"></path></g></g></g><g id="g-root-tx_personal_91ityn11hszr5-stroke" data-item-order="0" transform="translate(-10, 399)"></g><g id="g-root-tx_platafor_4ikyen11hucr0-stroke" data-item-order="0" transform="translate(434, 399)"></g></g></g></svg>