<?xml version="1.0" encoding="utf-8" standalone="yes"?>
<!DOCTYPE svg PUBLIC "-//W3C//DTD SVG 1.1//EN" "http://www.w3.org/Graphics/SVG/1.1/DTD/svg11.dtd">
<svg width="602" height="506" viewBox="0 0 602 506" style="fill:none;stroke:none;fill-rule:evenodd;clip-rule:evenodd;stroke-linecap:round;stroke-linejoin:round;stroke-miterlimit:1.5;" version="1.1" xmlns="http://www.w3.org/2000/svg" xmlns:xlink="http://www.w3.org/1999/xlink"><style class="text-font-style fontImports" data-font-family="Roboto">@import url('https://fonts.googleapis.com/css2?family=Roboto:wght@400;700&amp;display=block');</style><g id="items" style="isolation: isolate"><g id="blend" style="mix-blend-mode: normal"><g id="g-root-0.cr-big_cr_1lqjkpt1541s7j-fill" data-item-order="-82940" transform="translate(231.00003051757812, 219.00006103515625)"></g><g id="g-root-4.cu_sy_2rgdd1541pu0-fill" data-item-order="-82936" transform="translate(147.02593994140625, 134.99456787109375)"></g><g id="g-root-3.cu_sy_40ejl1541s01-fill" data-item-order="-82932" transform="translate(147.00811767578125, 278.99981689453125)"></g><g id="g-root-2.cu_sy_hwjd7l1541rsy-fill" data-item-order="-82928" transform="translate(290.9996337890625, 279.00390625)"></g><g id="g-root-1.cu_sy_me8ald1541q0z-fill" data-item-order="-82924" transform="translate(291, 135.01190185546875)"></g><g id="g-root-tx_visingen_qvaqw11541res-fill" data-item-order="0" transform="translate(57, 39)"><g id="tx_visingen_qvaqw11541res-fill" stroke="none" fill="#f4f4f4"><g><text style="font: 20px Roboto, sans-serif; white-space: pre;" font-size="20px" font-family="Roboto, sans-serif"><tspan x="15.41" y="34" dominant-baseline="ideographic">Visión general de las características de Firmedigital</tspan></text></g></g></g><g id="g-root-tx_segurida_qqwt5t167rpcc-fill" data-item-order="0" transform="translate(39, 111)"><g id="tx_segurida_qqwt5t167rpcc-fill" stroke="none" fill="#f4f4f4"><g><text style="font: 20px Roboto, sans-serif; white-space: pre;" font-size="20px" font-family="Roboto, sans-serif"><tspan x="18.36" y="34" dominant-baseline="ideographic">Seguridad de </tspan><tspan x="89.77" y="58" dominant-baseline="ideographic">datos</tspan></text></g></g></g><g id="g-root-tx_resultad_147zogx167j9qk-fill" data-item-order="0" transform="translate(411, 111)"><g id="tx_resultad_147zogx167j9qk-fill" stroke="none" fill="#f4f4f4"><g><text style="font: 20px Roboto, sans-serif; white-space: pre;" font-size="20px" font-family="Roboto, sans-serif"><tspan x="12" y="34" dominant-baseline="ideographic">Resultados más </tspan><tspan x="12" y="58" dominant-baseline="ideographic">rápidos</tspan></text></g></g></g><g id="g-root-shie_1d0inxd15ny5tz-fill" data-item-order="0" transform="translate(194.9371337890625, 182.81341552734375)"></g><g id="g-root-one_v9uy7515xp9u4-fill" data-item-order="0" transform="translate(339.186767578125, 182.93682861328125)"></g><g id="g-root-2_8vwk9t15436kt-fill" data-item-order="0" transform="translate(255, 242.99609375)"></g><g id="g-root-cog_8xs2ox15nwop1-fill" data-item-order="0" transform="translate(194.813232421875, 327.06304931640625)"></g><g id="g-root-exch_1q5q94115xl3bj-fill" data-item-order="0" transform="translate(339.063232421875, 327.18670654296875)"></g><g id="g-root-tx_personal_qp1dwh167t4hs-fill" data-item-order="0" transform="translate(15, 399)"><g id="tx_personal_qp1dwh167t4hs-fill" stroke="none" fill="#f4f4f4"><g><text style="font: 20px Roboto, sans-serif; white-space: pre;" font-size="20px" font-family="Roboto, sans-serif"><tspan x="17.19" y="34" dominant-baseline="ideographic">Personalización </tspan><tspan x="96.02" y="58" dominant-baseline="ideographic">potente</tspan></text></g></g></g><g id="g-root-tx_todoenun_qva4rl1684cum-fill" data-item-order="0" transform="translate(411, 399)"><g id="tx_todoenun_qva4rl1684cum-fill" stroke="none" fill="#f4f4f4"><g><text style="font: 20px Roboto, sans-serif; white-space: pre;" font-size="20px" font-family="Roboto, sans-serif"><tspan x="12" y="34" dominant-baseline="ideographic">Todo en un solo </tspan><tspan x="12" y="58" dominant-baseline="ideographic">sistema</tspan></text></g></g></g><g id="g-root-0.cr-big_cr_1lqjkpt1541s7j-stroke" data-item-order="-82940" transform="translate(231.00003051757812, 219.00006103515625)"><g id="0.cr-big_cr_1lqjkpt1541s7j-stroke" fill="none" stroke-linecap="round" stroke-linejoin="round" stroke-miterlimit="4" stroke="#d3d3d3" stroke-width="2"><g><path d="M 10 70C 10.000003 103.137088 36.862918 130.000003 70.000003 130.000003C 103.137088 130.000003 130.000003 103.137088 130.000003 70.000003C 130.000003 36.862918 103.137088 10.000003 70.000003 10.000003C 36.862918 10.000003 10.000003 36.862918 10.000003 70.000003"></path></g></g></g><g id="g-root-4.cu_sy_2rgdd1541pu0-stroke" data-item-order="-82936" transform="translate(147.02593994140625, 134.99456787109375)"><g id="4.cu_sy_2rgdd1541pu0-stroke" fill="none" stroke-linecap="round" stroke-linejoin="round" stroke-miterlimit="4" stroke="#ffe711" stroke-width="2"><g><path d="M 153.974 94L 153.974 10C 74.4569 10.0141 10 74.4797 10 154L 10 154.0054L 94.0002 154.0054L 94.0002 154C 94.0002 120.8716 120.8489 94.0141 153.974 94Z"></path></g></g></g><g id="g-root-3.cu_sy_40ejl1541s01-stroke" data-item-order="-82932" transform="translate(147.00811767578125, 278.99981689453125)"><g id="3.cu_sy_40ejl1541s01-stroke" fill="none" stroke-linecap="round" stroke-linejoin="round" stroke-miterlimit="4" stroke="#a6da37" stroke-width="2"><g><path d="M 94 10L 10 10C 10.0075 89.52 74.4713 153.9819 153.992 153.9862L 153.992 69.9858C 120.8633 69.9815 94.0077 43.1279 94 10Z"></path></g></g></g><g id="g-root-2.cu_sy_hwjd7l1541rsy-stroke" data-item-order="-82928" transform="translate(290.9996337890625, 279.00390625)"><g id="2.cu_sy_hwjd7l1541rsy-stroke" fill="none" stroke-linecap="round" stroke-linejoin="round" stroke-miterlimit="4" stroke="#1ac3fb" stroke-width="2"><g><path d="M 10 70C 43.1369 69.9998 69.9997 43.137 69.9997 10L 153.9998 10C 153.9998 89.5289 89.5289 153.9998 10.0001 154L 10 70Z"></path></g></g></g><g id="g-root-1.cu_sy_me8ald1541q0z-stroke" data-item-order="-82924" transform="translate(291, 135.01190185546875)"><g id="1.cu_sy_me8ald1541q0z-stroke" fill="none" stroke-linecap="round" stroke-linejoin="round" stroke-miterlimit="4" stroke="#43dd93" stroke-width="2"><g><path d="M 70.0067 153.988L 154.0068 153.988C 154.0003 74.4645 89.5318 10 10.0068 10L 10 10L 10 94.0001C 10.0022 94.0001 10.0045 94.0001 10.0067 94.0001C 43.1398 94.0001 70.0002 120.8565 70.0067 153.988Z"></path></g></g></g><g id="g-root-tx_visingen_qvaqw11541res-stroke" data-item-order="0" transform="translate(57, 39)"></g><g id="g-root-tx_segurida_qqwt5t167rpcc-stroke" data-item-order="0" transform="translate(39, 111)"></g><g id="g-root-tx_resultad_147zogx167j9qk-stroke" data-item-order="0" transform="translate(411, 111)"></g><g id="g-root-shie_1d0inxd15ny5tz-stroke" data-item-order="0" transform="translate(194.9371337890625, 182.81341552734375)"><g id="shie_1d0inxd15ny5tz-stroke" fill="none" stroke-linecap="round" stroke-linejoin="round" stroke-miterlimit="4" stroke="#ffe711" stroke-width="2"><g><path d="M 45.084 37.007999L 45.084 49.007999M 51.084 43.007999L 39.084 43.007999M 46.153999 56.799999L 47.259998 56.380001C 52.52 54.380001 57.084 49.332001 57.084 43.702L 57.084 36.919998C 57.08437 36.088165 56.590946 35.335461 55.827999 35.003998C 52.37587 33.714329 48.725018 33.037491 45.040001 33.003998C 41.382729 33.035286 37.759735 33.712357 34.337997 35.003998C 33.575836 35.336067 33.083286 36.088638 33.084 36.919998L 33.084 43.703999C 33.084 49.334 37.559998 54.377998 42.82 56.382L 43.925999 56.801998C 44.643635 57.075375 45.436855 57.074661 46.153999 56.799999ZM 33.084 57L 13.084 57C 11.97943 57 11.084 56.104568 11.084 55L 11.084 13C 11.084 11.895431 11.97943 11 13.084 11L 39.669998 11C 40.202408 11.003817 40.711319 11.219762 41.084 11.6L 48.498001 19C 48.8731 19.374985 49.083885 19.88361 49.084 20.414L 49.084 27M 17.084 21.007999L 17.084 29.007999M 35.084 21.007999L 35.084 29.007999M 29.084 35.007999L 29.084 43.007999M 41.084 21.007999L 41.084 29.007999M 26.084 21C 27.740854 21 29.084002 22.343147 29.084 24L 29.084 26C 29.084 27.656855 27.740854 29 26.084 29C 24.427147 29 23.084 27.656855 23.084 26L 23.084 24C 23.084 22.343147 24.427147 21 26.084 21ZM 20.084 35C 21.740854 35 23.084 36.343147 23.084 38L 23.084 40C 23.084 41.656853 21.740854 43 20.084 43C 18.427147 43 17.084 41.656853 17.084 40L 17.084 38C 17.084 36.343147 18.427147 35 20.084 35Z"></path></g></g></g><g id="g-root-one_v9uy7515xp9u4-stroke" data-item-order="0" transform="translate(339.186767578125, 182.93682861328125)"><g id="one_v9uy7515xp9u4-stroke" fill="none" stroke-linecap="round" stroke-linejoin="round" stroke-miterlimit="4" stroke="#43dd93" stroke-width="2"><g><path d="M 41 15.662001C 47.714603 21.679174 48.941483 31.735939 43.870422 39.19091C 38.799362 46.645885 28.994987 49.198914 20.931999 45.164001M 11.304 42.495998L 16.959999 42.495998L 16.959999 36.837997M 46.658001 15.625999L 41.001999 15.625999L 41.001999 21.282M 16.959999 42.458C 10.265596 36.460384 9.021501 26.443659 14.045307 18.99062C 19.069115 11.537581 28.820908 8.932762 36.891998 12.888M 41.709999 41.788002L 44.745998 44.826M 25.018 34.940002L 33.017998 34.940002M 25.018 25.939999L 27.666 23.292C 27.891808 23.06591 28.198462 22.939217 28.518 22.940001C 28.794142 22.939999 29.018 23.163857 29.018 23.439999L 29.018 34.940002M 56.139999 51.818001C 56.919868 52.571224 57.232635 53.686634 56.958088 54.735519C 56.68354 55.784409 55.864407 56.603542 54.815521 56.87809C 53.766636 57.152634 52.651226 56.83987 51.898003 56.060001L 43.411999 47.576C 43.021618 47.185501 43.021618 46.552502 43.411999 46.161999L 46.240002 43.332001C 46.630501 42.94162 47.2635 42.94162 47.653999 43.332001Z"></path></g></g></g><g id="g-root-2_8vwk9t15436kt-stroke" data-item-order="0" transform="translate(255, 242.99609375)"><g id="2_8vwk9t15436kt-stroke" fill="none" stroke-linecap="round" stroke-linejoin="round" stroke-miterlimit="4" stroke="#4f91fc" stroke-width="2"><g><path d="M 66.699997 80.5C 70.01371 80.5 72.699997 77.813713 72.699997 74.5L 72.699997 26.83L 57.489998 11.5L 25.299999 11.5C 21.986292 11.5 19.299999 14.186292 19.299999 17.5L 19.299999 74.379997C 19.299999 77.69371 21.986292 80.379997 25.299999 80.379997ZM 34.510002 26.83L 57.52 26.83L 57.52 65.169998L 34.510002 65.169998ZM 57.489998 80.5L 57.489998 65.169998L 72.82 65.169998M 19.18 65.169998L 34.510002 65.169998L 34.510002 80.5M 57.489998 11.5L 57.489998 26.83L 72.82 26.83"></path></g></g></g><g id="g-root-cog_8xs2ox15nwop1-stroke" data-item-order="0" transform="translate(194.813232421875, 327.06304931640625)"><g id="cog_8xs2ox15nwop1-stroke" fill="none" stroke-linecap="round" stroke-linejoin="round" stroke-miterlimit="4" stroke="#a6da37" stroke-width="2"><g><path d="M 37 56.450001C 35.200001 51.25 30.200001 47.450001 24.400101 47.450001C 18.6001 47.450001 13.4001 51.25 11.600098 56.450001M 24.20014 29.449961L 24.20014 23.449959M 13.19996 35.25L 35.200001 35.25M 15.99996 37.450001C 16.199961 41.849998 19.79994 45.450001 24.19994 45.450001C 28.79994 45.450001 32.400002 41.849998 32.400002 37.25L 32.400002 33.650002C 32.400002 29.049959 28.79994 25.449959 24.19994 25.449959C 19.79994 25.449959 16.199961 29.049959 15.99996 33.450001L 15.99996 37.450001ZM 10 10M 48.4002 13.24998L 49.200199 15.649981C 49.4002 16.44998 50.4002 17.04998 51.200199 16.849979L 53.600201 16.249981C 55.800201 15.849979 57.200199 18.249981 55.800201 19.849979L 54.000198 21.649979C 53.4002 22.249981 53.4002 23.249981 54.000198 23.849979L 55.800201 25.649979C 57.200199 27.249981 55.800201 29.849979 53.600201 29.249981L 51.200199 29.04998C 50.4002 28.849979 49.4002 29.249981 49.200199 30.25L 48.4002 32.650002C 47.800201 34.849998 44.800201 34.849998 44.200199 32.650002L 43.4002 30.25C 43.200199 29.44998 42.200199 28.849979 41.4002 29.04998L 39.000198 29.649981C 36.800201 30.049999 35.4002 27.649981 36.800201 26.04998L 38.600201 24.249981C 39.200199 23.649979 39.200199 22.649979 38.600201 22.04998L 37.000198 19.849979C 35.600201 18.249981 37.000198 15.649981 39.200199 16.249981L 41.600201 16.849979C 42.4002 17.04998 43.4002 16.649981 43.600201 15.649981L 44.4002 13.24998C 44.800201 11.049976 47.800201 11.049976 48.4002 13.24998ZM 43.299999 22.950001C 43.299999 24.606853 44.643147 25.950001 46.299999 25.950001C 47.956856 25.950001 49.299999 24.606853 49.299999 22.950001C 49.299999 21.293146 47.956856 19.950001 46.299999 19.950001C 44.643147 19.950001 43.299999 21.293146 43.299999 22.950001"></path></g></g></g><g id="g-root-exch_1q5q94115xl3bj-stroke" data-item-order="0" transform="translate(339.063232421875, 327.18670654296875)"><g id="exch_1q5q94115xl3bj-stroke" fill="none" stroke-linecap="round" stroke-linejoin="round" stroke-miterlimit="4" stroke="#1ac3fb" stroke-width="2"><g><path d="M 23 56L 27 52L 23 48M 12 27.958C 11.995503 29.623558 13.334539 30.98134 15 31L 33 31C 34.665001 30.980259 36.003407 29.623114 36 27.958L 36 16C 36 14.343145 34.656853 13 33 13L 15 13C 13.343145 13 12 14.343145 12 16ZM 12 25L 36 25M 19 35L 29 35M 24 31L 24 35M 38 33C 38 31.89543 38.895432 31 40 31L 52 31C 53.104568 31 54 31.89543 54 33L 54 55C 54 56.104568 53.104568 57 52 57L 40 57C 38.895432 57 38 56.104568 38 55ZM 15 42C 15 47.522846 19.477154 52 25 52L 27 52M 47 12L 43 16L 47 20M 55 26C 55 20.477154 50.52285 16 45 16L 43 16M 38 49L 54 49M 46 52.5C 45.723858 52.5 45.5 52.723858 45.5 53C 45.5 53.276142 45.723858 53.5 46 53.5C 46.276142 53.5 46.5 53.276142 46.5 53C 46.5 52.723858 46.276142 52.5 46 52.5L 46 52.5"></path></g></g></g><g id="g-root-tx_personal_qp1dwh167t4hs-stroke" data-item-order="0" transform="translate(15, 399)"></g><g id="g-root-tx_todoenun_qva4rl1684cum-stroke" data-item-order="0" transform="translate(411, 399)"></g></g></g></svg>