<?xml version="1.0" encoding="utf-8" standalone="yes"?>
<!DOCTYPE svg PUBLIC "-//W3C//DTD SVG 1.1//EN" "http://www.w3.org/Graphics/SVG/1.1/DTD/svg11.dtd">
<svg width="698" height="577" viewBox="0 0 698 577" style="fill:none;stroke:none;fill-rule:evenodd;clip-rule:evenodd;stroke-linecap:round;stroke-linejoin:round;stroke-miterlimit:1.5;" version="1.1" xmlns="http://www.w3.org/2000/svg" xmlns:xlink="http://www.w3.org/1999/xlink"><style class="text-font-style fontImports" data-font-family="Roboto">@import url('https://fonts.googleapis.com/css2?family=Roboto:wght@400;700&amp;display=block');</style><g id="items" style="isolation: isolate"><g id="blend" style="mix-blend-mode: normal"><g id="g-root-0.cr-big_cr_zrjvng1oitvd9-fill" data-item-order="-105441" transform="translate(279, 254)"></g><g id="g-root-8.cu_sy_13ymqkc1oivbbi-fill" data-item-order="-105437" transform="translate(237.1767578125, 151.63916015625)"></g><g id="g-root-7.cu_sy_1hbyo701oiv8qv-fill" data-item-order="-105433" transform="translate(195.00189208984375, 199.194091796875)"></g><g id="g-root-6.cu_sy_1lt14ho1oiva4o-fill" data-item-order="-105429" transform="translate(176.637451171875, 314.001708984375)"></g><g id="g-root-5.cu_sy_4mj241oivawx-fill" data-item-order="-105425" transform="translate(224.1923828125, 356.42633056640625)"></g><g id="g-root-4.cu_sy_4mbgfw1oiv94y-fill" data-item-order="-105421" transform="translate(339.00018310546875, 356.4256591796875)"></g><g id="g-root-3.cu_sy_dj7ev01oiv9qj-fill" data-item-order="-105417" transform="translate(381.42462158203125, 313.9998779296875)"></g><g id="g-root-2.cu_sy_qvwvek1oivabo-fill" data-item-order="-105413" transform="translate(381.42388916015625, 212.17822265625)"></g><g id="g-root-1.cu_sy_v2zqbg1oiwq9x-fill" data-item-order="-105409" transform="translate(338.99822998046875, 170.00341796875)"></g><g id="g-root-tx_benefici_zkonp81oiwohy-fill" data-item-order="0" transform="translate(195, 39)"><g id="tx_benefici_zkonp81oiwohy-fill" stroke="none" fill="#f4f4f4"><g><text style="font: 20px Roboto, sans-serif; white-space: pre;" font-size="20px" font-family="Roboto, sans-serif"><tspan x="17.55" y="34" dominant-baseline="ideographic">Beneficios de la Firma Múltiple</tspan></text></g></g></g><g id="g-root-tx_flujodet_dgp9181pd9hj8-fill" data-item-order="0" transform="translate(507, 230)"><g id="tx_flujodet_dgp9181pd9hj8-fill" stroke="none" fill="#f4f4f4"><g><text style="font: 20px Roboto, sans-serif; white-space: pre;" font-size="20px" font-family="Roboto, sans-serif"><tspan x="12" y="34" dominant-baseline="ideographic">Flujo de Trabajo </tspan><tspan x="12" y="58" dominant-baseline="ideographic">Acelerado</tspan></text></g></g></g><g id="g-root-user_74lq41ot1uyx-fill" data-item-order="0" transform="translate(226.76678466796875, 256.96051025390625)"></g><g id="g-root-tx_cumplimi_hunbwc1pd6qyw-fill" data-item-order="0" transform="translate(399, 470)"><g id="tx_cumplimi_hunbwc1pd6qyw-fill" stroke="none" fill="#f4f4f4"><g><text style="font: 20px Roboto, sans-serif; white-space: pre;" font-size="20px" font-family="Roboto, sans-serif"><tspan x="12" y="34" dominant-baseline="ideographic">Cumplimiento </tspan><tspan x="12" y="58" dominant-baseline="ideographic">Normativo</tspan></text></g></g></g><g id="g-root-3_mfga2k1pd5a0y-fill" data-item-order="0" transform="translate(415.23834228515625, 256.97216796875)"></g><g id="g-root-1_1cz9ji41oiwnbj-fill" data-item-order="0" transform="translate(303, 277.99609375)"></g><g id="g-root-2_3d5301pd2j2i-fill" data-item-order="0" transform="translate(360.03985595703125, 201.76678466796875)"></g><g id="g-root-1_18mkl4s1oswa2p-fill" data-item-order="0" transform="translate(281.97216796875, 201.7618408203125)"></g><g id="g-root-grap_1hgxrlo1p39xji-fill" data-item-order="0" transform="translate(226.76190185546875, 335.027587890625)"></g><g id="g-root-1_1q8v8qk1p31hxe-fill" data-item-order="0" transform="translate(415.23297119140625, 335.039794921875)"></g><g id="g-root-tx_optimiza_18gbegs1pd3uv8-fill" data-item-order="0" transform="translate(15, 350)"><g id="tx_optimiza_18gbegs1pd3uv8-fill" stroke="none" fill="#f4f4f4"><g><text style="font: 20px Roboto, sans-serif; white-space: pre;" font-size="20px" font-family="Roboto, sans-serif"><tspan x="14.8" y="34" dominant-baseline="ideographic">Optimización de </tspan><tspan x="20.52" y="58" dominant-baseline="ideographic">la Productividad</tspan></text></g></g></g><g id="g-root-tx_gestinef_vah5vg1pdaww2-fill" data-item-order="0" transform="translate(399, 110)"><g id="tx_gestinef_vah5vg1pdaww2-fill" stroke="none" fill="#f4f4f4"><g><text style="font: 20px Roboto, sans-serif; white-space: pre;" font-size="20px" font-family="Roboto, sans-serif"><tspan x="12" y="34" dominant-baseline="ideographic">Gestión Eficiente </tspan><tspan x="12" y="58" dominant-baseline="ideographic">de Documentos</tspan></text></g></g></g><g id="g-root-tx_segurida_1cymsxo1pd82ku-fill" data-item-order="0" transform="translate(507, 350)"><g id="tx_segurida_1cymsxo1pd82ku-fill" stroke="none" fill="#f4f4f4"><g><text style="font: 20px Roboto, sans-serif; white-space: pre;" font-size="20px" font-family="Roboto, sans-serif"><tspan x="12" y="34" dominant-baseline="ideographic">Seguridad </tspan><tspan x="12" y="58" dominant-baseline="ideographic">Mejorada</tspan></text></g></g></g><g id="g-root-key_1q87z7g1p3737p-fill" data-item-order="0" transform="translate(281.96038818359375, 390.233154296875)"></g><g id="g-root-chec_m7zjss1p2vwng-fill" data-item-order="0" transform="translate(360.02764892578125, 390.23828125)"></g><g id="g-root-tx_personal_1lsedx81pd5c02-fill" data-item-order="0" transform="translate(123, 470)"><g id="tx_personal_1lsedx81pd5c02-fill" stroke="none" fill="#f4f4f4"><g><text style="font: 20px Roboto, sans-serif; white-space: pre;" font-size="20px" font-family="Roboto, sans-serif"><tspan x="17.19" y="34" dominant-baseline="ideographic">Personalización </tspan><tspan x="52.83" y="58" dominant-baseline="ideographic">de Permisos</tspan></text></g></g></g><g id="g-root-tx_notifica_8d43g1pczojs-fill" data-item-order="0" transform="translate(111, 110)"><g id="tx_notifica_8d43g1pczojs-fill" stroke="none" fill="#f4f4f4"><g><text style="font: 20px Roboto, sans-serif; white-space: pre;" font-size="20px" font-family="Roboto, sans-serif"><tspan x="16.58" y="34" dominant-baseline="ideographic">Notificaciones en </tspan><tspan x="64.78" y="58" dominant-baseline="ideographic">Tiempo Real</tspan></text></g></g></g><g id="g-root-tx_comodida_v3lxx81pd2gw6-fill" data-item-order="0" transform="translate(15, 230)"><g id="tx_comodida_v3lxx81pd2gw6-fill" stroke="none" fill="#f4f4f4"><g><text style="font: 20px Roboto, sans-serif; white-space: pre;" font-size="20px" font-family="Roboto, sans-serif"><tspan x="11.73" y="34" dominant-baseline="ideographic">Comodidad para </tspan><tspan x="75.33" y="58" dominant-baseline="ideographic">el Usuario</tspan></text></g></g></g><g id="g-root-0.cr-big_cr_zrjvng1oitvd9-stroke" data-item-order="-105441" transform="translate(279, 254)"><g id="0.cr-big_cr_zrjvng1oitvd9-stroke" fill="none" stroke-linecap="round" stroke-linejoin="round" stroke-miterlimit="4" stroke="#d3d3d3" stroke-width="2"><g><path d="M 10 70C 10.000003 103.137088 36.862918 130.000003 70.000003 130.000003C 103.137088 130.000003 130.000003 103.137088 130.000003 70.000003C 130.000003 36.862918 103.137088 10.000003 70.000003 10.000003C 36.862918 10.000003 10.000003 36.862918 10.000003 70.000003"></path></g></g></g><g id="g-root-8.cu_sy_13ymqkc1oivbbi-stroke" data-item-order="-105437" transform="translate(237.1767578125, 151.63916015625)"><g id="8.cu_sy_13ymqkc1oivbbi-stroke" fill="none" stroke-linecap="round" stroke-linejoin="round" stroke-miterlimit="4" stroke="#f79438" stroke-width="2"><g><path d="M 69.397 129.9386L 10 70.5417C 39.4074 41.1342 74.5477 20.9537 111.8234 10L 111.8234 112.365C 96.4681 112.365 81.1127 118.2228 69.397 129.9386Z"></path></g></g></g><g id="g-root-7.cu_sy_1hbyo701oiv8qv-stroke" data-item-order="-105433" transform="translate(195.00189208984375, 199.194091796875)"><g id="7.cu_sy_1hbyo701oiv8qv-stroke" fill="none" stroke-linecap="round" stroke-linejoin="round" stroke-miterlimit="4" stroke="#fb6762" stroke-width="2"><g><path d="M 94 124.8093L 10 124.8094C 10 83.221 20.5781 44.1033 39.1906 10L 111.5735 82.383C 100.7157 93.2408 94 108.2408 94 124.8093Z"></path></g></g></g><g id="g-root-6.cu_sy_1lt14ho1oiva4o-stroke" data-item-order="-105429" transform="translate(176.637451171875, 314.001708984375)"><g id="6.cu_sy_1lt14ho1oiva4o-stroke" fill="none" stroke-linecap="round" stroke-linejoin="round" stroke-miterlimit="4" stroke="#f366bb" stroke-width="2"><g><path d="M 129.9386 52.4263L 70.5417 111.8234C 41.1342 82.4159 20.9537 47.2757 10 10L 112.365 10C 112.365 25.3553 118.2228 40.7106 129.9386 52.4263Z"></path></g></g></g><g id="g-root-5.cu_sy_4mj241oivawx-stroke" data-item-order="-105425" transform="translate(224.1923828125, 356.42633056640625)"><g id="5.cu_sy_4mj241oivawx-stroke" fill="none" stroke-linecap="round" stroke-linejoin="round" stroke-miterlimit="4" stroke="#cb68f9" stroke-width="2"><g><path d="M 124.8093 27.5736L 124.8094 111.5735C 83.221 111.5735 44.1033 100.9954 10 82.383L 82.383 10C 93.2408 20.8578 108.2408 27.5736 124.8093 27.5736Z"></path></g></g></g><g id="g-root-4.cu_sy_4mbgfw1oiv94y-stroke" data-item-order="-105421" transform="translate(339.00018310546875, 356.4256591796875)"><g id="4.cu_sy_4mbgfw1oiv94y-stroke" fill="none" stroke-linecap="round" stroke-linejoin="round" stroke-miterlimit="4" stroke="#8769fd" stroke-width="2"><g><path d="M 52.4264 10L 111.8234 69.3969C 82.4159 98.8043 47.2757 118.9849 10 129.9386L 10 27.5736C 25.3553 27.5736 40.7106 21.7157 52.4264 10Z"></path></g></g></g><g id="g-root-3.cu_sy_dj7ev01oiv9qj-stroke" data-item-order="-105417" transform="translate(381.42462158203125, 313.9998779296875)"><g id="3.cu_sy_dj7ev01oiv9qj-stroke" fill="none" stroke-linecap="round" stroke-linejoin="round" stroke-miterlimit="4" stroke="#1ac3fb" stroke-width="2"><g><path d="M 27.5736 10.0001L 111.5736 10C 111.5736 51.5884 100.9954 90.7061 82.383 124.8094L 10 52.4265C 20.8578 41.5686 27.5736 26.5686 27.5736 10.0001Z"></path></g></g></g><g id="g-root-2.cu_sy_qvwvek1oivabo-stroke" data-item-order="-105413" transform="translate(381.42388916015625, 212.17822265625)"><g id="2.cu_sy_qvwvek1oivabo-stroke" fill="none" stroke-linecap="round" stroke-linejoin="round" stroke-miterlimit="4" stroke="#a6da37" stroke-width="2"><g><path d="M 10 69.397L 69.3969 10C 98.8043 39.4074 118.9849 74.5477 129.9386 111.8234L 27.5736 111.8234C 27.5736 96.4681 21.7157 81.1127 10 69.397Z"></path></g></g></g><g id="g-root-1.cu_sy_v2zqbg1oiwq9x-stroke" data-item-order="-105409" transform="translate(338.99822998046875, 170.00341796875)"><g id="1.cu_sy_v2zqbg1oiwq9x-stroke" fill="none" stroke-linecap="round" stroke-linejoin="round" stroke-miterlimit="4" stroke="#43dd93" stroke-width="2"><g><path d="M 10.0001 94L 10 10C 51.5884 10 90.7061 20.5781 124.8094 39.1906L 52.4265 111.5736C 41.5686 100.7157 26.5686 94 10.0001 94Z"></path></g></g></g><g id="g-root-tx_benefici_zkonp81oiwohy-stroke" data-item-order="0" transform="translate(195, 39)"></g><g id="g-root-tx_flujodet_dgp9181pd9hj8-stroke" data-item-order="0" transform="translate(507, 230)"></g><g id="g-root-user_74lq41ot1uyx-stroke" data-item-order="0" transform="translate(226.76678466796875, 256.96051025390625)"><g id="user_74lq41ot1uyx-stroke" fill="none" stroke-linecap="round" stroke-linejoin="round" stroke-miterlimit="4" stroke="#fb6762" stroke-width="2"><g><path d="M 27.02515 28.07485L 11.125 28.07485M 11.125 28.07485L 11.125 44.274849L 18.625 44.274849L 18.625 28.22485M 10 10M 11.125 14.27497L 13.824985 22.974955L 20.724985 22.974955M 35.125 19.075075C 36.989052 19.075075 38.5 17.564035 38.5 15.700075C 38.5 13.836115 36.989052 12.325075 35.125 12.325075C 33.261101 12.325075 31.75 13.836115 31.75 15.700075C 31.75 17.564035 33.261101 19.075075 35.125 19.075075ZM 28.043652 41.692898L 30.325001 36.775002C 30.775002 36.025002 31.52515 35.574997 32.27515 35.574997L 35.125149 35.574997C 36.32515 35.574997 37.375149 34.525002 37.375149 33.325001L 37.375149 23.574986C 37.375149 22.674986 36.925003 21.924984 36.175003 21.624985C 35.425003 21.174984 34.525002 21.324986 33.924999 21.774984L 32.27515 22.824986C 30.92515 23.724985 28.525002 23.574986 25.825001 23.574986C 24.625074 23.574986 23.575075 24.624985 23.575075 25.825001C 23.575075 27.025002 24.625074 28.075001 25.825001 28.075001L 29.725149 28.075001C 30.77515 28.075001 31.82515 27.924999 32.875149 27.474998L 32.875149 31.075001L 32.27515 31.075001C 29.725149 31.075001 27.32515 32.575001 26.27515 34.824997L 23.993589 39.742901C 23.393589 40.7929 23.843605 42.142899 25.043652 42.742901C 26.39365 43.342899 27.593651 42.592899 28.043652 41.692898ZM 35.125 35.574997L 39.775002 35.574997C 40.525002 35.574997 41.125 34.974998 41.275002 34.224998L 43.074997 21.475C 43.224998 20.725 43.824997 20.125 44.574997 20.125L 44.875 20.125M 36.175003 35.574997L 36.175003 44.274849M 30.924999 44.275002L 40.675003 44.275002"></path></g></g></g><g id="g-root-tx_cumplimi_hunbwc1pd6qyw-stroke" data-item-order="0" transform="translate(399, 470)"></g><g id="g-root-3_mfga2k1pd5a0y-stroke" data-item-order="0" transform="translate(415.23834228515625, 256.97216796875)"><g id="3_mfga2k1pd5a0y-stroke" fill="none" stroke-linecap="round" stroke-linejoin="round" stroke-miterlimit="4" stroke="#a6da37" stroke-width="2"><g><path d="M 36.428497 18.251499C 36.428501 19.44195 37.393551 20.407 38.584003 20.407C 39.774452 20.407 40.739502 19.44195 40.739502 18.251501C 40.739502 17.06105 39.774452 16.096001 38.584003 16.096001C 37.393551 16.096001 36.428501 17.06105 36.428501 18.251501ZM 40 11.8L 40.491997 13.414C 40.66272 13.967039 41.231575 14.294343 41.795502 14.164L 43.431999 13.7845C 44.068756 13.640864 44.724777 13.929 45.049824 14.49507C 45.374866 15.061141 45.293026 15.772964 44.848 16.2505L 43.702 17.5C 43.305668 17.926085 43.305668 18.585917 43.702 19.012001L 44.8465 20.247999C 45.290142 20.725714 45.371151 21.43659 45.046364 22.001871C 44.721577 22.567152 44.066635 22.855183 43.430496 22.7125L 41.800003 22.328499C 41.236076 22.198158 40.667221 22.525459 40.496498 23.078499L 40 24.700001C 39.81258 25.325062 39.237305 25.753149 38.584747 25.753149C 37.932194 25.753149 37.356918 25.325062 37.169498 24.700001L 36.677498 23.086C 36.506775 22.532959 35.937923 22.205658 35.374001 22.336L 33.737499 22.7155C 33.101364 22.858183 32.446423 22.570152 32.121635 22.004871C 31.796848 21.43959 31.877857 20.728714 32.321499 20.250999L 33.466 19.014999C 33.862335 18.588917 33.862335 17.929085 33.466003 17.503L 32.321499 16.268499C 31.876472 15.790965 31.794632 15.079142 32.119675 14.513071C 32.444717 13.947 33.100742 13.658865 33.737499 13.8025L 35.374001 14.182C 35.937923 14.312343 36.506775 13.98504 36.677498 13.432L 37.167999 11.8C 37.354588 11.173678 37.930477 10.744342 38.584 10.744342C 39.237522 10.744342 39.813412 11.173678 40 11.8ZM 20.546501 24.439001C 20.916433 24.852633 21.445074 25.089062 22 25.089062C 22.554926 25.089062 23.083567 24.852633 23.453499 24.438999L 24.400002 23.398001C 24.955404 22.782318 25.838272 22.582993 26.604326 22.900328C 27.370377 23.217665 27.85367 23.98292 27.810999 24.810999L 27.739 26.212C 27.711166 26.765484 27.918877 27.304893 28.310745 27.696758C 28.70261 28.088625 29.24202 28.296337 29.795502 28.268501L 31.196499 28.196499C 32.024578 28.153828 32.789837 28.637121 33.10717 29.403173C 33.424507 30.169226 33.225182 31.052095 32.609501 31.6075L 31.568501 32.548C 31.154867 32.917931 30.918436 33.446575 30.918436 34.001499C 30.918436 34.556427 31.154867 35.085068 31.568501 35.454998L 32.609501 36.3955C 33.225182 36.950905 33.424507 37.833775 33.10717 38.599823C 32.789837 39.365875 32.024578 39.849171 31.196499 39.806499L 29.7955 39.734501C 29.24202 39.706665 28.70261 39.914379 28.310745 40.306244C 27.918877 40.698109 27.711166 41.237518 27.739002 41.791004L 27.810999 43.192001C 27.85367 44.020081 27.370377 44.785336 26.604326 45.102673C 25.838272 45.420006 24.955404 45.22068 24.4 44.605L 23.459499 43.563999C 23.089567 43.150368 22.560925 42.913937 22.006001 42.913937C 21.451075 42.913937 20.922432 43.150368 20.5525 43.563999L 19.6 44.605C 19.044594 45.22068 18.161726 45.420006 17.395674 45.102673C 16.629622 44.785336 16.146328 44.020081 16.188999 43.192001L 16.261 41.791C 16.288837 41.237518 16.081123 40.698109 15.689258 40.306244C 15.297392 39.914379 14.757983 39.706665 14.2045 39.734505L 12.8035 39.806499C 11.978688 39.844105 11.218843 39.360519 10.903643 38.597385C 10.588442 37.834248 10.78556 36.955406 11.3965 36.400002L 12.4375 35.459499C 12.851133 35.089565 13.087563 34.560928 13.087563 34.006001C 13.087563 33.451073 12.851133 32.922432 12.4375 32.552498L 11.3965 31.612C 10.780818 31.056595 10.581492 30.173727 10.898829 29.407673C 11.216164 28.641621 11.98142 28.158329 12.8095 28.201L 14.2105 28.273001C 14.763983 28.300838 15.303392 28.093124 15.695258 27.70126C 16.087124 27.309393 16.294838 26.769983 16.267 26.216501L 16.195 24.810999C 16.155437 23.985786 16.637829 23.224453 17.400894 22.907799C 18.163961 22.591143 19.043665 22.787237 19.599998 23.398001ZM 16.75 34.001499C 16.75 36.900997 19.100506 39.251503 22 39.251503C 24.899494 39.251503 27.25 36.900997 27.25 34.001503C 27.25 31.102005 24.899494 28.751501 22 28.751501C 19.100506 28.751501 16.75 31.102005 16.75 34.001503Z"></path></g></g></g><g id="g-root-1_1cz9ji41oiwnbj-stroke" data-item-order="0" transform="translate(303, 277.99609375)"><g id="1_1cz9ji41oiwnbj-stroke" fill="none" stroke-linecap="round" stroke-linejoin="round" stroke-miterlimit="4" stroke="#4f91fc" stroke-width="2"><g><path d="M 10 10M 66.825104 55.150299L 68.703697 62.468201C 69.527504 65.677902 67.593704 68.947601 64.384003 69.771698L 32.297981 78.008499C 29.088341 78.832603 25.81846 76.898499 24.994511 73.688805L 13.65865 29.53159C 12.834679 26.321949 14.76865 23.052071 17.978291 22.228119L 50.064102 13.99117C 52.7029 13.3138 55.382202 14.50033 56.709698 16.72723M 10 10M 66.818504 44.056301L 66.818504 20.62891M 10 10M 55.105598 32.341808L 78.5326 32.341808"></path></g></g></g><g id="g-root-2_3d5301pd2j2i-stroke" data-item-order="0" transform="translate(360.03985595703125, 201.76678466796875)"><g id="2_3d5301pd2j2i-stroke" fill="none" stroke-linecap="round" stroke-linejoin="round" stroke-miterlimit="4" stroke="#43dd93" stroke-width="2"><g><path d="M 38.349998 45.25C 40.006855 45.25 41.349998 43.906857 41.349998 42.25L 41.349998 18.415001L 33.744999 10.75L 17.65 10.75C 15.993146 10.75 14.65 12.093145 14.65 13.75L 14.65 42.189999C 14.65 43.846855 15.993146 45.189999 17.65 45.189999ZM 22.255001 18.415001L 33.760002 18.415001L 33.760002 37.584999L 22.255001 37.584999ZM 33.744999 45.25L 33.744999 37.584999L 41.41 37.584999M 14.59 37.584999L 22.255001 37.584999L 22.255001 45.25M 33.744999 10.75L 33.744999 18.415001L 41.41 18.415001"></path></g></g></g><g id="g-root-1_18mkl4s1oswa2p-stroke" data-item-order="0" transform="translate(281.97216796875, 201.7618408203125)"><g id="1_18mkl4s1oswa2p-stroke" fill="none" stroke-linecap="round" stroke-linejoin="round" stroke-miterlimit="4" stroke="#f79438" stroke-width="2"><g><path d="M 36.25 23.125L 36.25 23.125M 36.25 23.123499C 36.042892 23.123499 35.875 23.291393 35.875 23.498499C 35.875 23.705608 36.042892 23.873499 36.25 23.873499C 36.457108 23.873499 36.625 23.705608 36.625 23.498499C 36.625 23.291393 36.457108 23.123499 36.25 23.123499M 36.25 20.125L 36.25 15.625M 27.25 19.75C 27.250002 24.720562 31.279438 28.75 36.25 28.75C 41.220566 28.75 45.25 24.720562 45.25 19.75C 45.25 14.779438 41.220566 10.75 36.25 10.75C 31.279438 10.75 27.250002 14.779438 27.250002 19.75M 24.400002 21.583C 21.691336 20.823923 18.783478 21.378349 16.544146 23.08083C 14.304811 24.783314 12.992941 27.436993 13 30.250002L 13 38.5C 13 39.742641 11.99264 40.75 10.75 40.75L 33.25 40.75C 32.007362 40.75 31 39.742641 31 38.5L 31 30.526001M 24.122499 43.75C 23.805021 44.649609 22.954737 45.251221 22.000751 45.251221C 21.046764 45.251221 20.19648 44.649609 19.879 43.75M 22 18.248501L 22 21.248501"></path></g></g></g><g id="g-root-grap_1hgxrlo1p39xji-stroke" data-item-order="0" transform="translate(226.76190185546875, 335.027587890625)"><g id="grap_1hgxrlo1p39xji-stroke" fill="none" stroke-linecap="round" stroke-linejoin="round" stroke-miterlimit="4" stroke="#f366bb" stroke-width="2"><g><path d="M 44.875 20.574986L 29.724998 33.325001L 25.525002 28.375L 11.125 39.775002M 10 10M 14.875 44.275002L 14.875 36.8008M 14.875 32.125L 14.875 18.774969M 22.375 24.775002L 22.375 11.125M 29.875 25.375L 29.875 15.77497M 37.375 15.775L 37.375 11.125M 10 10M 22.375 38.574997L 22.375 30.90625M 10 10M 29.875 40.375L 29.875 33.226601M 10 10M 37.375 44.875L 37.375 26.875M 38.125 20.574986L 44.875 20.574986L 44.875 26.875"></path></g></g></g><g id="g-root-1_1q8v8qk1p31hxe-stroke" data-item-order="0" transform="translate(415.23297119140625, 335.039794921875)"><g id="1_1q8v8qk1p31hxe-stroke" fill="none" stroke-linecap="round" stroke-linejoin="round" stroke-miterlimit="4" stroke="#1ac3fb" stroke-width="2"><g><path d="M 12.5935 15.9325L 12.5935 27.137501C 12.68114 34.722481 17.498838 41.444489 24.6535 43.9645L 26.303501 44.564499C 27.402649 44.967934 28.60935 44.967934 29.7085 44.564499L 31.358501 43.9645C 38.513165 41.444489 43.33086 34.722481 43.418503 27.137501L 43.418499 15.9325C 43.415874 15.032523 42.877209 14.220689 42.049004 13.8685C 37.599915 12.012851 32.820335 11.080002 28 11.1265C 23.183697 11.081628 18.408365 12.014445 13.963 13.8685C 13.134792 14.220689 12.596126 15.032523 12.5935 15.9325ZM 19 25.8505C 19 30.821064 23.029438 34.850498 28 34.850498C 32.970566 34.850498 37 30.821064 37 25.8505C 37 20.879938 32.970566 16.8505 28 16.8505C 23.029438 16.8505 19 20.879938 19 25.8505M 30.25 29.747499C 28.857697 30.55135 27.142305 30.55135 25.75 29.747499M 28 16.8505C 29.242641 16.8505 30.25 17.857861 30.25 19.1005C 30.25 20.343142 29.242641 21.3505 28 21.3505M 31.9375 23.6005C 32.248161 23.6005 32.5 23.852341 32.5 24.163M 31.375 24.163C 31.375 23.852341 31.626841 23.6005 31.9375 23.6005M 31.9375 24.7255C 31.626841 24.7255 31.375 24.47366 31.375 24.163M 32.5 24.163C 32.5 24.47366 32.248161 24.7255 31.9375 24.7255M 24.0625 23.6005C 24.373161 23.6005 24.625 23.852341 24.625 24.163M 23.5 24.163C 23.5 23.852341 23.751841 23.6005 24.0625 23.6005M 24.0625 24.7255C 23.751841 24.7255 23.5 24.47366 23.5 24.163M 24.625 24.163C 24.625 24.47366 24.373161 24.7255 24.0625 24.7255"></path></g></g></g><g id="g-root-tx_optimiza_18gbegs1pd3uv8-stroke" data-item-order="0" transform="translate(15, 350)"></g><g id="g-root-tx_gestinef_vah5vg1pdaww2-stroke" data-item-order="0" transform="translate(399, 110)"></g><g id="g-root-tx_segurida_1cymsxo1pd82ku-stroke" data-item-order="0" transform="translate(507, 350)"></g><g id="g-root-key_1q87z7g1p3737p-stroke" data-item-order="0" transform="translate(281.96038818359375, 390.233154296875)"><g id="key_1q87z7g1p3737p-stroke" fill="none" stroke-linecap="round" stroke-linejoin="round" stroke-miterlimit="4" stroke="#cb68f9" stroke-width="2"><g><path d="M 34.607502 40.3465C 33.875217 41.07859 32.688122 41.078487 31.955967 40.346268C 31.22381 39.614048 31.22381 38.426952 31.955967 37.694733C 32.688122 36.962517 33.875217 36.96241 34.607502 37.6945C 35.339138 38.427116 35.339138 39.613884 34.607502 40.3465ZM 10 10M 38.571999 36.912998L 45.029503 30.470501C 45.17062 30.329819 45.249958 30.138763 45.25 29.939501L 45.25 28C 45.25 27.585787 44.914215 27.25 44.5 27.25L 42.550003 27.25C 42.35804 27.249941 42.173363 27.32349 42.034 27.4555L 35.390499 33.731499C 32.746239 32.611244 29.678932 33.521755 28.074163 35.903313C 26.469395 38.284866 26.777178 41.46962 28.808308 43.499794C 30.839437 45.529968 34.024338 45.83625 36.405136 44.230362C 38.785934 42.624466 39.695004 39.556732 38.573502 36.912998ZM 14.875 17.125C 14.875 20.645815 17.729185 23.5 21.25 23.5C 24.770815 23.5 27.625 20.645815 27.625 17.125C 27.625 13.604185 24.770815 10.75 21.25 10.75C 17.729185 10.75 14.875 13.604185 14.875 17.125ZM 22.75 36.25L 10.75 36.25C 10.749927 31.835918 13.51055 27.893091 17.658365 26.383207C 21.806181 24.873323 26.45545 26.118813 29.293001 29.500002"></path></g></g></g><g id="g-root-chec_m7zjss1p2vwng-stroke" data-item-order="0" transform="translate(360.02764892578125, 390.23828125)"><g id="chec_m7zjss1p2vwng-stroke" fill="none" stroke-linecap="round" stroke-linejoin="round" stroke-miterlimit="4" stroke="#8769fd" stroke-width="2"><g><path d="M 16.75 22.75L 31 22.75M 16.75 27.25L 25.75 27.25M 16.75 18.25L 27.25 18.25M 16.75 31.75L 22.75 31.75M 16.75 36.25L 22.75 36.25M 25.75 45.25L 12.25 45.25C 11.421573 45.25 10.75 44.578426 10.75 43.75L 10.75 12.25C 10.75 11.421573 11.421573 10.75 12.25 10.75L 32.189499 10.75C 32.587292 10.750085 32.968761 10.908176 33.25 11.1895L 38.810501 16.75C 39.091827 17.031239 39.249916 17.412708 39.25 17.810499L 39.25 22.75M 27.25 36.25C 27.250002 41.220566 31.279438 45.25 36.25 45.25C 41.220566 45.25 45.25 41.220566 45.25 36.25C 45.25 31.279438 41.220566 27.250002 36.25 27.250002C 31.279438 27.250002 27.250002 31.279438 27.250002 36.25ZM 40.261002 33.633999L 35.9035 39.443501C 35.707386 39.70401 35.408134 39.866913 35.082893 39.890205C 34.757648 39.913498 34.438232 39.794907 34.207001 39.564999L 31.956999 37.314999"></path></g></g></g><g id="g-root-tx_personal_1lsedx81pd5c02-stroke" data-item-order="0" transform="translate(123, 470)"></g><g id="g-root-tx_notifica_8d43g1pczojs-stroke" data-item-order="0" transform="translate(111, 110)"></g><g id="g-root-tx_comodida_v3lxx81pd2gw6-stroke" data-item-order="0" transform="translate(15, 230)"></g></g></g></svg>