<svg xmlns="http://www.w3.org/2000/svg" viewBox="0 0 512 512" width="300" height="300" version="1.1" xmlns:xlink="http://www.w3.org/1999/xlink" xmlns:svgjs="http://svgjs.dev/svgjs"><g width="100%" height="100%" transform="matrix(1,0,0,1,0,0)"><g id="OUTLINE"><path d="M488,480h-8V200a8.00008,8.00008,0,0,0-8-8H384V72a8.00008,8.00008,0,0,0-8-8H352a8,8,0,0,0,0,16h16V288a8,8,0,0,0,16,0V208h80V480H423.1604l-5.15015-46.35059a40.06809,40.06809,0,0,0-23.99853-32.34863L368.593,390.40723A39.90432,39.90432,0,0,0,384,358.874V320a8.00008,8.00008,0,0,0-8-8H344a24.02718,24.02718,0,0,0-24,24v22.874a39.90393,39.90393,0,0,0,15.40735,31.53321L309.9873,401.30176a40.0053,40.0053,0,0,0-6.01025,3.20556,39.78239,39.78239,0,0,0-5.96533-3.20654L272.593,390.40723A39.90432,39.90432,0,0,0,288,358.874V320a8.00008,8.00008,0,0,0-8-8H248a24.02718,24.02718,0,0,0-24,24v22.874a39.90368,39.90368,0,0,0,15.40723,31.533l-25.41895,10.8938a39.78239,39.78239,0,0,0-5.96533,3.20654,40.042,40.042,0,0,0-6.01123-3.20654L176.593,390.40723A39.90432,39.90432,0,0,0,192,358.874V320a8.00008,8.00008,0,0,0-8-8H152a24.02718,24.02718,0,0,0-24,24v22.874a39.90368,39.90368,0,0,0,15.40723,31.533l-25.41895,10.8938a40.06809,40.06809,0,0,0-23.99853,32.34863L88.8396,480H48V208h80v80a8,8,0,0,0,16,0V80h16a8,8,0,0,0,0-16H136a8.00008,8.00008,0,0,0-8,8V192H40a8.00008,8.00008,0,0,0-8,8V480H24a8,8,0,0,0,0,16H488a8,8,0,0,0,0-16Zm-85.89209-44.583L407.06177,480H375.062l-6.79663-54.37256a23.96037,23.96037,0,0,0,7.55176-14.71606l11.89184,5.09643A24.039,24.039,0,0,1,402.10791,435.417ZM352,400.7041l6.645,2.8479a8,8,0,1,1-13.29,0ZM352,432c.31348,0,.62427-.01172.93506-.02368L358.938,480H345.062l6.00293-48.02368C351.37573,431.98828,351.68652,432,352,432Zm-16-96a8.00917,8.00917,0,0,1,8-8h24v30.874a23.95337,23.95337,0,0,1-10.687,19.96973l-5.313,3.542-5.3125-3.542A23.95263,23.95263,0,0,1,336,358.874Zm-7.81714,74.91138a23.96037,23.96037,0,0,0,7.55176,14.71606L328.938,480H327.1604l-5.15015-46.35059A39.944,39.944,0,0,0,315.769,416.2583c.17578-.08032.34388-.17432.522-.25049ZM306.10791,435.417,311.06177,480H279.062l-6.79663-54.37256a23.96037,23.96037,0,0,0,7.55176-14.71606l11.89184,5.09643A24.039,24.039,0,0,1,306.10791,435.417ZM256,400.7041l6.645,2.8479a8,8,0,1,1-13.29,0ZM256,432c.31348,0,.62427-.01172.93506-.02368L262.938,480H249.062l6.00293-48.02368C255.37573,431.98828,255.68652,432,256,432Zm-16-96a8.00917,8.00917,0,0,1,8-8h24v30.874a23.95337,23.95337,0,0,1-10.687,19.96973l-5.313,3.542-5.3125-3.542A23.95263,23.95263,0,0,1,240,358.874Zm-7.81714,74.91138a23.96037,23.96037,0,0,0,7.55176,14.71606L232.938,480H200.93823l4.95386-44.584A24.03891,24.03891,0,0,1,220.291,416.00781Zm-35.95166,5.34668a39.9438,39.9438,0,0,0-6.24145,17.39135L184.8396,480H183.062l-6.79663-54.37256a23.95976,23.95976,0,0,0,7.55176-14.71631l11.89087,5.09571C195.88647,416.0835,196.05493,416.17725,196.2312,416.25806ZM160,400.7041l6.6449,2.84766a8,8,0,1,1-13.28992.00024ZM160,432c.31348,0,.62427-.01172.93506-.02368L166.938,480H153.062l6.00293-48.02368C159.37573,431.98828,159.68652,432,160,432Zm-16-96a8.00917,8.00917,0,0,1,8-8h24v30.874a23.95337,23.95337,0,0,1-10.687,19.96973l-5.313,3.542-5.3125-3.542A23.95263,23.95263,0,0,1,144,358.874Zm-34.10791,99.416A24.03891,24.03891,0,0,1,124.291,416.00781l11.89184-5.09643a23.96037,23.96037,0,0,0,7.55176,14.71606L136.938,480H104.93823Z" fill="#ffffff" fill-opacity="1" data-original-color="#000000ff" stroke="none" stroke-opacity="1"/><path d="M176,224a8.00008,8.00008,0,0,0-8,8v56a8.00008,8.00008,0,0,0,8,8h32a8.00008,8.00008,0,0,0,8-8V232a8.00008,8.00008,0,0,0-8-8Zm24,56H184V240h16Z" fill="#ffffff" fill-opacity="1" data-original-color="#000000ff" stroke="none" stroke-opacity="1"/><path d="M272,224H240a8.00008,8.00008,0,0,0-8,8v56a8.00008,8.00008,0,0,0,8,8h32a8.00008,8.00008,0,0,0,8-8V232A8.00008,8.00008,0,0,0,272,224Zm-8,56H248V240h16Z" fill="#ffffff" fill-opacity="1" data-original-color="#000000ff" stroke="none" stroke-opacity="1"/><path d="M304,224a8.00008,8.00008,0,0,0-8,8v56a8.00008,8.00008,0,0,0,8,8h32a8.00008,8.00008,0,0,0,8-8V232a8.00008,8.00008,0,0,0-8-8Zm24,56H312V240h16Z" fill="#ffffff" fill-opacity="1" data-original-color="#000000ff" stroke="none" stroke-opacity="1"/><path d="M408,296h32a8.00008,8.00008,0,0,0,8-8V232a8.00008,8.00008,0,0,0-8-8H408a8.00008,8.00008,0,0,0-8,8v56A8.00008,8.00008,0,0,0,408,296Zm8-56h16v40H416Z" fill="#ffffff" fill-opacity="1" data-original-color="#000000ff" stroke="none" stroke-opacity="1"/><path d="M185.61865,73.32812a10.884,10.884,0,0,1-6.74219,16.27149l-12.74218,3.05566A7.99968,7.99968,0,0,0,160,100.43457v23.13086a7.99968,7.99968,0,0,0,6.13428,7.7793l12.74316,3.05566a10.88431,10.88431,0,0,1,6.74121,16.27051L178.72754,161.916a8.00009,8.00009,0,0,0,1.16455,9.83691l16.35547,16.35547a8.003,8.003,0,0,0,9.83691,1.16406l11.24463-6.8916a10.884,10.884,0,0,1,16.27051,6.74219l3.05518,12.74218A7.99969,7.99969,0,0,0,244.43408,208h23.13184a7.99969,7.99969,0,0,0,7.77929-6.13477l3.05518-12.74218a10.88272,10.88272,0,0,1,16.27-6.74121l11.24512,6.89062a8.0028,8.0028,0,0,0,9.83642-1.16406l16.35547-16.35547A8.00009,8.00009,0,0,0,333.272,161.916l-6.89062-11.24512a10.8834,10.8834,0,0,1,6.74219-16.27051l12.74218-3.05566A7.99968,7.99968,0,0,0,352,123.56543V100.43457a7.99968,7.99968,0,0,0-6.13428-7.7793l-12.74316-3.05566a10.88431,10.88431,0,0,1-6.74121-16.27051L333.27246,62.084a8.00009,8.00009,0,0,0-1.16455-9.83691L315.75244,35.8916a8.00052,8.00052,0,0,0-9.83691-1.16406l-11.24463,6.8916A10.884,10.884,0,0,1,278.40039,34.877l-3.05518-12.74218A7.99969,7.99969,0,0,0,267.56592,16H244.43408a7.99969,7.99969,0,0,0-7.77929,6.13477L233.59961,34.877a10.88272,10.88272,0,0,1-16.27,6.74121l-11.24512-6.89062a7.99974,7.99974,0,0,0-9.83642,1.16406L179.89258,52.24707A8.00009,8.00009,0,0,0,178.728,62.084Zm13.64307-8.35839-3.59619-5.86817,7.43652-7.43652,5.86768,3.5957A26.88243,26.88243,0,0,0,249.1582,38.60742L250.74268,32h10.51464l1.58448,6.60742a26.88344,26.88344,0,0,0,40.18847,16.6543l5.86817-3.59668,7.43652,7.43652-3.59619,5.86817a26.88371,26.88371,0,0,0,16.65332,40.18847L336,106.74316v10.51368l-6.60693,1.585a26.8828,26.8828,0,0,0-16.6543,40.18847l3.5957,5.86817L308.898,172.335l-5.86768-3.5957a26.88243,26.88243,0,0,0-40.18847,16.65332L261.25732,192H250.74268l-1.58448-6.60742a26.88344,26.88344,0,0,0-40.18847-16.6543l-5.86817,3.59668-7.43652-7.43652,3.59619-5.86817a26.88371,26.88371,0,0,0-16.65332-40.18847L176,117.25684V106.74316l6.60693-1.585a26.8833,26.8833,0,0,0,16.65479-40.18847Z" fill="#ffffff" fill-opacity="1" data-original-color="#000000ff" stroke="none" stroke-opacity="1"/><path d="M256,152a40,40,0,1,0-40-40A40.04552,40.04552,0,0,0,256,152Zm0-64a24,24,0,1,1-24,24A24.0275,24.0275,0,0,1,256,88Z" fill="#ffffff" fill-opacity="1" data-original-color="#000000ff" stroke="none" stroke-opacity="1"/><path d="M400,376a8.00008,8.00008,0,0,0,8,8h32a8.00008,8.00008,0,0,0,8-8V320a8.00008,8.00008,0,0,0-8-8H408a8.00008,8.00008,0,0,0-8,8Zm16-48h16v40H416Z" fill="#ffffff" fill-opacity="1" data-original-color="#000000ff" stroke="none" stroke-opacity="1"/><path d="M112,232a8.00008,8.00008,0,0,0-8-8H72a8.00008,8.00008,0,0,0-8,8v56a8.00008,8.00008,0,0,0,8,8h32a8.00008,8.00008,0,0,0,8-8ZM96,280H80V240H96Z" fill="#ffffff" fill-opacity="1" data-original-color="#000000ff" stroke="none" stroke-opacity="1"/><path d="M104,312H72a8.00008,8.00008,0,0,0-8,8v56a8.00008,8.00008,0,0,0,8,8h32a8.00008,8.00008,0,0,0,8-8V320A8.00008,8.00008,0,0,0,104,312Zm-8,56H80V328H96Z" fill="#ffffff" fill-opacity="1" data-original-color="#000000ff" stroke="none" stroke-opacity="1"/></g></g></svg>